<?xml version="1.0" encoding="UTF-8"?>
<svg version="1.1" xmlns="http://www.w3.org/2000/svg" width="500" height="500">
<path d="M0 0 C165 0 330 0 500 0 C500 165 500 330 500 500 C335 500 170 500 0 500 C0 335 0 170 0 0 Z " fill="#FEFEFE" transform="translate(0,0)"/>
<path d="M0 0 C8.69293191 4.25476836 13.14106876 10.99963804 16.6875 19.875 C17.14867291 21.24224204 17.58446015 22.61820483 18 24 C18.25523437 24.8353125 18.51046875 25.670625 18.7734375 26.53125 C21.69605591 37.064251 22.91652725 48.09958101 23.1328125 59.015625 C23.16544189 60.23644775 23.16544189 60.23644775 23.19873047 61.48193359 C23.23214961 63.04181198 23.24021715 64.60250237 23.21923828 66.16259766 C23.209614 68.58222069 23.209614 68.58222069 24 72 C26.77735073 74.3654692 26.77735073 74.3654692 30 76 C36.3164633 82.18149614 37.82857123 89.02856579 38.125 97.625 C38.08375 98.40875 38.0425 99.1925 38 100 C38.52464844 100.12375 39.04929687 100.2475 39.58984375 100.375 C53.22793257 104.0057724 65.59679166 110.82194149 77 119 C80.65662904 121.43775269 83.49415429 121.34686544 87.73046875 121.4140625 C88.48088943 121.43342865 89.23131012 121.4527948 90.00447083 121.4727478 C92.39869867 121.53247459 94.79297477 121.57890065 97.1875 121.625 C98.8118698 121.6631862 100.43621948 121.70223831 102.06054688 121.7421875 C106.04020105 121.83817025 110.01995001 121.92222636 114 122 C113.99887207 123.20422607 113.99774414 124.40845215 113.99658203 125.64916992 C114.0002917 130.17665086 114.04343457 134.70309047 114.09765625 139.23022461 C114.11566958 141.17839791 114.12341177 143.12669738 114.12011719 145.07495117 C114.10745245 157.40724087 114.92492346 166.09635074 121 177 C122.09171357 179.77063237 122.94612911 182.57190269 123.75 185.4375 C123.94464844 186.07236328 124.13929688 186.70722656 124.33984375 187.36132812 C127.75474835 199.15306246 128.34290587 211.23258276 128.3125 223.4375 C128.32861328 224.72720703 128.34472656 226.01691406 128.36132812 227.34570312 C128.36711907 238.91021099 126.93981887 250.21778713 122.453125 260.97265625 C121.60248784 264.77852424 122.4735553 267.98518678 124.2421875 271.39453125 C124.78101563 272.19246094 125.31984375 272.99039062 125.875 273.8125 C126.50535156 274.76382812 127.13570313 275.71515625 127.78515625 276.6953125 C128.51605469 277.78585937 129.24695313 278.87640625 130 280 C132.25267553 283.44568401 134.4867513 286.90340176 136.71337891 290.3659668 C139.09587076 294.06955408 141.50084804 297.75237192 143.96484375 301.40234375 C144.89361303 302.80964257 145.82201286 304.21718531 146.75 305.625 C147.19255127 306.26332764 147.63510254 306.90165527 148.09106445 307.55932617 C150.30300489 310.96165691 151.00907871 312.79407833 150.828125 316.8984375 C150 320 150 320 149 321 C147.43482602 321.10145854 145.86507202 321.13290964 144.29661846 321.13701439 C143.27297591 321.14208893 142.24933336 321.14716347 141.19467133 321.15239179 C139.48722512 321.15313843 139.48722512 321.15313843 137.74528503 321.15390015 C136.54668848 321.1582824 135.34809192 321.16266465 134.11317426 321.1671797 C130.77108159 321.17827359 127.42903594 321.1848012 124.08693159 321.18936086 C120.48832901 321.19530457 116.88974383 321.20691746 113.29115295 321.21765137 C104.59292919 321.24220361 95.89469965 321.25680661 87.19645187 321.26971143 C84.74119138 321.2734213 82.28593147 321.2773947 79.83067155 321.2814641 C64.59598588 321.30669842 49.36129937 321.32875967 34.1265974 321.34119225 C30.59571009 321.34412213 27.0648228 321.34708376 23.53393555 321.35009766 C22.21749655 321.35121673 22.21749655 321.35121673 20.87446282 321.35235842 C6.65080937 321.36501766 -7.57271923 321.39824659 -21.79631428 321.43989949 C-36.38708622 321.48227867 -50.97779419 321.50588262 -65.56862754 321.51111281 C-73.76585144 321.5145315 -81.96288025 321.52634029 -90.16004372 321.55921555 C-97.13989906 321.58716218 -104.11951935 321.59823926 -111.09942631 321.58702008 C-114.66256049 321.58181945 -118.22520203 321.58480983 -121.78826523 321.60948563 C-125.6471573 321.63598777 -129.50537108 321.62396539 -133.36433411 321.60800171 C-135.06174208 321.62882484 -135.06174208 321.62882484 -136.79344112 321.65006864 C-144.35109889 321.57260692 -144.35109889 321.57260692 -147.73229504 318.58895302 C-149 316 -149 316 -148.91894531 313.96875 C-147.85420434 311.68764713 -146.66175991 309.61746851 -145.296875 307.5 C-144.73444092 306.622229 -144.17200684 305.74445801 -143.5925293 304.84008789 C-142.98449463 303.90285889 -142.37645996 302.96562988 -141.75 302 C-141.12971924 301.03118896 -140.50943848 300.06237793 -139.87036133 299.06420898 C-136.70057184 294.12517868 -133.48816701 289.2186832 -130.21484375 284.34765625 C-129.62155273 283.45755859 -129.02826172 282.56746094 -128.41699219 281.65039062 C-127.2894482 279.96321301 -126.15123649 278.28310139 -125.00097656 276.61132812 C-121.98014779 272.08293659 -120.05273777 268.60998005 -120 263 C-120.6480952 259.82833537 -120.6480952 259.82833537 -121.8125 256.75 C-125.6464861 245.84320922 -126.36096108 235.37783344 -126.3125 223.875 C-126.31067719 223.19024597 -126.30885437 222.50549194 -126.30697632 221.79998779 C-126.25954374 211.21124499 -125.65209342 201.27819337 -123 191 C-122.82839355 190.30310059 -122.65678711 189.60620117 -122.47998047 188.88818359 C-119.34297745 176.32054774 -119.34297745 176.32054774 -116.30053711 171.06347656 C-110.39554655 160.75554305 -109.98162998 151.84782987 -110.0625 140.125 C-110.04935737 138.35804683 -110.03310087 136.59111398 -110.01367188 134.82421875 C-109.97330549 130.54886358 -109.97475254 126.27545038 -110 122 C-109.10917725 122.0220752 -108.21835449 122.04415039 -107.30053711 122.06689453 C-84.39007506 122.84817174 -84.39007506 122.84817174 -64.83007812 112.38720703 C-61.20317883 109.63800189 -57.05131365 107.84056291 -52.9375 105.9375 C-52.13852295 105.5559375 -51.3395459 105.174375 -50.51635742 104.78125 C-46.34562972 102.84874352 -42.62514575 101.48101516 -38 101 C-38.0825 99.906875 -38.165 98.81375 -38.25 97.6875 C-38.23789483 90.87228746 -35.78414498 83.91092647 -31.625 78.5 C-28.06376833 75.10835079 -24.9954172 73 -20 73 C-19.67 79.6 -19.34 86.2 -19 93 C-10.53016131 83.11852153 -6.03159956 74.3285146 -2 62 C-1.33333333 60 -0.66666667 58 0 56 C-0.61488281 55.76925781 -1.22976562 55.53851563 -1.86328125 55.30078125 C-8.43710021 52.64818763 -8.43710021 52.64818763 -11.0625 49.625 C-12.20741246 46.41924512 -12.48351014 44.38457099 -12 41 C-9.96006092 37.3421782 -8.49580738 35.33053826 -5 33 C-2.51953125 32.8046875 -2.51953125 32.8046875 0.1875 32.875 C1.08855469 32.89304688 1.98960937 32.91109375 2.91796875 32.9296875 C3.60503906 32.95289063 4.29210937 32.97609375 5 33 C5.33 30.36 5.66 27.72 6 25 C5.0821875 25.02320312 4.164375 25.04640625 3.21875 25.0703125 C-3.56823816 25.17012115 -9.5193285 25.07381488 -16 23 C-13.33132673 12.88713287 -8.17170249 6.38263153 0 0 Z " fill="#93A7FE" transform="translate(249,11)"/>
<path d="M0 0 C10.6836857 -0.02321213 21.36736535 -0.04096025 32.05107117 -0.05181217 C37.0124094 -0.05702161 41.97373032 -0.06408396 46.93505859 -0.07543945 C51.72666595 -0.08633735 56.51825669 -0.09229144 61.30987549 -0.09487724 C63.13421897 -0.09671907 64.95856158 -0.10031565 66.78289795 -0.10573006 C69.3461704 -0.11303216 71.909375 -0.11398709 74.47265625 -0.11352539 C75.22000534 -0.11712067 75.96735443 -0.12071594 76.73735046 -0.12442017 C80.26471803 -0.11758462 83.68115297 0.03795053 87.18005371 0.50099182 C90.40102819 0.92175496 93.4069261 1.11651366 96.64648438 1.09765625 C97.68115845 1.09435303 98.71583252 1.0910498 99.78186035 1.08764648 C101.42124573 1.07519897 101.42124573 1.07519897 103.09375 1.0625 C104.23984741 1.05871338 105.38594482 1.05492676 106.56677246 1.05102539 C110.2112209 1.03886606 113.85558805 1.02024406 117.5 1 C122.30208141 0.9733253 127.10412204 0.95336588 131.90625 0.9375 C133.54563538 0.92505249 133.54563538 0.92505249 135.21813965 0.91235352 C139.57127342 0.89845603 143.83461654 0.89495387 148.15087891 1.49780273 C152.69359036 2.09049317 157.10568232 2.12545425 161.6796875 2.09765625 C162.57366241 2.0962413 163.46763733 2.09482635 164.38870239 2.09336853 C167.21750375 2.0878164 170.046223 2.07527917 172.875 2.0625 C174.79687384 2.05747825 176.71874895 2.05291653 178.640625 2.04882812 C183.42711181 2.03768237 188.21354126 2.01965878 193 2 C193.66 2 194.32 2 195 2 C195.90105469 1.92144775 196.80210937 1.84289551 197.73046875 1.76196289 C220.34439882 -0.13051643 220.34439882 -0.13051643 226.24951172 3.31103516 C229.62931969 6.67712399 231.52034678 10.72993244 233.25 15.12890625 C234.22285925 17.5559874 235.5319298 19.67497708 236.9375 21.875 C237.39511719 22.65359375 237.85273438 23.4321875 238.32421875 24.234375 C240.55505048 27.91602737 242.90332034 31.51646081 245.25 35.125 C245.71688232 35.84848633 246.18376465 36.57197266 246.66479492 37.31738281 C249.06593344 41.03744502 251.49156005 44.73633896 253.96875 48.40625 C254.89626071 49.81221816 255.82336023 51.21845768 256.75 52.625 C257.1924707 53.26324707 257.63494141 53.90149414 258.09082031 54.55908203 C260.30293947 57.96144668 261.00908429 59.79395168 260.828125 63.8984375 C260 67 260 67 259 68 C257.43482602 68.10145854 255.86507202 68.13290964 254.29661846 68.13701439 C253.27297591 68.14208893 252.24933336 68.14716347 251.19467133 68.15239179 C249.48722512 68.15313843 249.48722512 68.15313843 247.74528503 68.15390015 C245.9473902 68.16047353 245.9473902 68.16047353 244.11317426 68.1671797 C240.77108159 68.17827359 237.42903594 68.1848012 234.08693159 68.18936086 C230.48832901 68.19530457 226.88974383 68.20691746 223.29115295 68.21765137 C214.59292919 68.24220361 205.89469965 68.25680661 197.19645187 68.26971143 C194.74119138 68.2734213 192.28593147 68.2773947 189.83067155 68.2814641 C174.59598588 68.30669842 159.36129937 68.32875967 144.1265974 68.34119225 C140.59571009 68.34412213 137.0648228 68.34708376 133.53393555 68.35009766 C132.21749655 68.35121673 132.21749655 68.35121673 130.87446282 68.35235842 C116.65080937 68.36501766 102.42728077 68.39824659 88.20368572 68.43989949 C73.61291378 68.48227867 59.02220581 68.50588262 44.43137246 68.51111281 C36.23414856 68.5145315 28.03711975 68.52634029 19.83995628 68.55921555 C12.86010094 68.58716218 5.88048065 68.59823926 -1.09942631 68.58702008 C-4.66256049 68.58181945 -8.22520203 68.58480983 -11.78826523 68.60948563 C-15.6471573 68.63598777 -19.50537108 68.62396539 -23.36433411 68.60800171 C-24.49593942 68.6218838 -25.62754473 68.63576588 -26.79344112 68.65006864 C-34.35109889 68.57260692 -34.35109889 68.57260692 -37.73229504 65.58895302 C-39 63 -39 63 -38.91894531 60.96875 C-37.85420434 58.68764713 -36.66175991 56.61746851 -35.296875 54.5 C-34.45358643 53.18322266 -34.45358643 53.18322266 -33.59326172 51.83984375 C-32.68084717 50.43412109 -32.68084717 50.43412109 -31.75 49 C-31.12754395 48.03191406 -30.50508789 47.06382812 -29.86376953 46.06640625 C-27.91535117 43.04023363 -25.95861909 40.0195785 -24 37 C-23.38286133 36.04609375 -22.76572266 35.0921875 -22.12988281 34.109375 C-18.43400917 28.39702632 -14.72954747 22.69042931 -11 17 C-10.60538574 16.39494629 -10.21077148 15.78989258 -9.80419922 15.16650391 C-8.04446497 12.48955536 -6.25809445 10.25809445 -4 8 C-2.82425289 5.90010348 -2.82425289 5.90010348 -2 4 C-1.34 4 -0.68 4 0 4 C0 2.68 0 1.36 0 0 Z " fill="#5A77FC" transform="translate(139,264)"/>
<path d="M0 0 C1.22396484 -0.04930664 1.22396484 -0.04930664 2.47265625 -0.09960938 C8.50778417 -0.15375816 8.50778417 -0.15375816 11.6328125 2.83984375 C14.35547423 7.57955592 14.53801534 11.00545039 14.125 16.4375 C13.733125 17.5925 13.34125 18.7475 12.9375 19.9375 C11.81105393 24.78988306 13.28780354 27.94464042 15.125 32.4375 C15.455 33.4275 15.785 34.4175 16.125 35.4375 C16.93324219 35.39109375 17.74148438 35.3446875 18.57421875 35.296875 C27.24096623 35.00415012 27.24096623 35.00415012 31.3125 37 C33.6318672 40.11914899 33.90371438 42.60188252 34.125 46.4375 C36.0740625 46.2828125 36.0740625 46.2828125 38.0625 46.125 C45.03185149 46.125 49.87732724 49.48300195 55 53.9375 C57.125 56.4375 57.125 56.4375 58.25 59.125 C61.03396542 62.55855735 64.16443377 62.31717494 68.40234375 62.92578125 C74.81821122 64.13163296 78.37012152 68.50251685 82.125 73.4375 C83.38737731 75.96225462 83.22356404 77.74950466 83.1875 80.5625 C83.17847656 81.47257812 83.16945313 82.38265625 83.16015625 83.3203125 C83.14275391 84.36832031 83.14275391 84.36832031 83.125 85.4375 C83.6921875 85.11265625 84.259375 84.7878125 84.84375 84.453125 C87.31210174 83.35420128 88.94103219 83.16911666 91.625 83.1875 C92.3778125 83.18234375 93.130625 83.1771875 93.90625 83.171875 C96.39653289 83.47000746 98.01036293 84.09947743 100.125 85.4375 C100.875 87.5625 100.875 87.5625 101.125 89.4375 C95.70195736 93.9567022 92.67300655 95.5990507 85.5625 95.75 C79.40145855 96.09512058 75.0946748 97.47174565 69.6328125 100.2265625 C61.74289421 104.03633613 52.02069964 104.83617949 43.5234375 102.8203125 C35.09391623 99.796389 27.09235769 94.0987365 21.125 87.4375 C21.125 86.7775 21.125 86.1175 21.125 85.4375 C20.465 85.4375 19.805 85.4375 19.125 85.4375 C19.021875 86.22125 18.91875 87.005 18.8125 87.8125 C18.125 90.4375 18.125 90.4375 15.125 92.4375 C11.98847981 92.83961797 10.55130236 92.69097708 7.8125 91.0625 C7.255625 90.52625 6.69875 89.99 6.125 89.4375 C6.125 88.7775 6.125 88.1175 6.125 87.4375 C5.465 87.4375 4.805 87.4375 4.125 87.4375 C3.898125 88.18 3.67125 88.9225 3.4375 89.6875 C1.858845 92.99515809 0.12885901 94.38608409 -2.875 96.4375 C-7.56552005 98.00100668 -12.30748543 97.28996857 -17.2109375 97.08203125 C-21.43012214 97.49135513 -22.87829167 98.53940365 -25.875 101.4375 C-28.87038026 103.50327949 -31.81850043 103.96090601 -35.453125 103.90625 C-39.73495674 103.07750837 -43.36410713 100.86328461 -47.140625 98.75 C-49.9705051 97.14901262 -49.9705051 97.14901262 -53.875 97.4375 C-54.473125 97.9325 -55.07125 98.4275 -55.6875 98.9375 C-58.83898234 101.09851646 -61.14427506 100.84448817 -64.875 100.4375 C-65.89696992 99.45996356 -66.89479625 98.4569119 -67.875 97.4375 C-70.51847155 96.56515439 -73.14540117 96.01921778 -75.875 95.4375 C-76.625 92.6875 -76.625 92.6875 -76.875 89.4375 C-74.99338478 86.85899026 -73.65451983 85.69733994 -70.625 84.6875 C-70.0475 84.605 -69.47 84.5225 -68.875 84.4375 C-68.875 83.7775 -68.875 83.1175 -68.875 82.4375 C-69.49375 82.14875 -70.1125 81.86 -70.75 81.5625 C-72.875 80.4375 -72.875 80.4375 -74.875 78.4375 C-75.33570027 74.36798099 -75.34849701 72.18156673 -73.125 68.6875 C-70.875 66.4375 -70.875 66.4375 -68.8125 65.0625 C-66.5519459 63.42211364 -66.5519459 63.42211364 -65.4375 59.9375 C-63.875 56.4375 -63.875 56.4375 -61.75 54.4375 C-57.67267016 53.01929832 -54.03704019 53.40088699 -49.875 54.4375 C-48.885 55.0975 -47.895 55.7575 -46.875 56.4375 C-46.83375 55.715625 -46.7925 54.99375 -46.75 54.25 C-45.78148819 51.13692632 -44.51700536 49.49831367 -41.953125 47.48828125 C-38.40288396 45.69314057 -34.55617415 45.53298409 -30.6484375 45.03125 C-26.87279154 44.2229427 -25.28816077 42.36254336 -22.875 39.4375 C-22.029375 39.19 -21.18375 38.9425 -20.3125 38.6875 C-16.92522666 36.95043675 -16.0072635 35.08190487 -14.578125 31.60546875 C-13.45612225 26.55022303 -13.67895987 21.50765553 -13.93432617 16.35375977 C-14.14817517 10.85262057 -13.49025609 7.31680273 -10.875 2.4375 C-7.74113721 -0.69636279 -4.26670788 0.03004724 0 0 Z " fill="#F0F6FB" transform="translate(247.875,124.5625)"/>
<path d="M0 0 C0.66 0 1.32 0 2 0 C2 0.66 2 1.32 2 2 C3.01835937 1.91621094 4.03671875 1.83242188 5.0859375 1.74609375 C13.16291965 1.14167399 21.02154554 0.98193927 29.10498047 1.59790039 C34.54414201 1.96662776 39.95640504 2.01807531 45.40625 1.96484375 C46.52229614 1.95562141 46.52229614 1.95562141 47.66088867 1.94621277 C51.44251473 1.91262235 55.22286163 1.86091104 59.00390625 1.78686523 C60.40884804 1.77140561 61.81379594 1.75648922 63.21875 1.7421875 C64.47623047 1.7201123 65.73371094 1.69803711 67.02929688 1.67529297 C68.00962891 1.78244629 68.98996094 1.88959961 70 2 C70.99 3.485 70.99 3.485 72 5 C72.99 5.66 73.98 6.32 75 7 C75 7.99 75 8.98 75 10 C76.22143249 11.86055414 77.52543092 13.66769144 78.875 15.4375 C85 23.50537634 85 23.50537634 85 28 C85.66 28 86.32 28 87 28 C87.99 29.98 88.98 31.96 90 34 C89.23436234 33.99777939 88.46872467 33.99555878 87.67988586 33.99327087 C80.45581703 33.97321341 73.23176175 33.95799804 66.00767231 33.94818783 C62.29392112 33.94297473 58.580193 33.93590567 54.86645508 33.92456055 C51.28085797 33.91367574 47.695283 33.90771131 44.10967064 33.90512276 C42.74337605 33.90327859 41.37708264 33.8996774 40.0107975 33.89426994 C38.09355481 33.88698538 36.17628973 33.88659131 34.2590332 33.88647461 C33.16871292 33.884254 32.07839264 33.88203339 30.95503235 33.87974548 C28.18318126 33.99254547 25.70035863 34.39448471 23 35 C19.50621439 35.31986356 16.00426874 35.46111398 12.5 35.625 C11.56285156 35.6765625 10.62570312 35.728125 9.66015625 35.78125 C8.75136719 35.82507813 7.84257812 35.86890625 6.90625 35.9140625 C6.08447266 35.9548291 5.26269531 35.9955957 4.41601562 36.03759766 C1.83400709 35.99741684 -0.48807028 35.57877277 -3 35 C-3.33 35.66 -3.66 36.32 -4 37 C-4 36.34 -4 35.68 -4 35 C-5.32 35 -6.64 35 -8 35 C-6.15811388 37.05270463 -6.15811388 37.05270463 -4 38 C-3.2133623 39.9493686 -2.51756943 41.93601522 -1.875 43.9375 C-1.52179688 45.01902344 -1.16859375 46.10054688 -0.8046875 47.21484375 C0 50 0 50 0 52 C-1.2490789 52.0154612 -1.2490789 52.0154612 -2.52339172 52.03123474 C-10.36623209 52.129162 -18.20899627 52.2316697 -26.05170918 52.33933926 C-30.08384284 52.39453281 -34.11598381 52.44794712 -38.14819336 52.49731445 C-42.03858448 52.54501062 -45.92888769 52.59735535 -49.81917381 52.65294075 C-51.30432131 52.6733405 -52.78949289 52.69205751 -54.274683 52.70907402 C-56.35288838 52.73317079 -58.43092808 52.76321796 -60.5090332 52.79467773 C-61.69261917 52.81022202 -62.87620514 52.8257663 -64.09565735 52.84178162 C-67.06636816 52.87536986 -67.06636816 52.87536986 -70 54 C-71 50 -71 50 -66 37 C-47.19 37 -28.38 37 -9 37 C-9 36.34 -9 35.68 -9 35 C-9.74773682 35.0707373 -10.49547363 35.14147461 -11.26586914 35.21435547 C-20.3309948 35.99974664 -29.34625089 36.15551539 -38.4375 36.125 C-39.21775543 36.12411377 -39.99801086 36.12322754 -40.8019104 36.12231445 C-53.00967045 36.10635559 -65.19578778 35.82207282 -77.39627075 35.42880249 C-95.21935745 34.87266434 -113.0453206 34.91700774 -130.875 34.9375 C-131.62213131 34.93835602 -132.36926262 34.93921204 -133.13903427 34.94009399 C-142.42604652 34.95154187 -151.71302264 34.97174738 -161 35 C-161.33 33.68 -161.66 32.36 -162 31 C-161.01 30.67 -160.02 30.34 -159 30 C-157.57450848 28.25361105 -157.57450848 28.25361105 -156.29296875 26.0625 C-155.78830078 25.24910156 -155.28363281 24.43570312 -154.76367188 23.59765625 C-154.24353516 22.74042969 -153.72339844 21.88320313 -153.1875 21 C-152.16131843 19.33261752 -151.13397681 17.66594842 -150.10546875 16 C-149.65324951 15.2575 -149.20103027 14.515 -148.73510742 13.75 C-148.16252197 12.8425 -147.58993652 11.935 -147 11 C-146.43870644 9.86928574 -146.43870644 9.86928574 -145.86607361 8.71572876 C-142.43990778 2.47124221 -142.43990778 2.47124221 -138.58058167 1.20819092 C-135.59180295 0.94046815 -132.72863736 0.96079255 -129.73046875 1.0859375 C-128.11535149 1.10148178 -128.11535149 1.10148178 -126.46760559 1.11734009 C-123.03868738 1.16098135 -119.61495742 1.26774917 -116.1875 1.375 C-113.86269011 1.41158059 -111.53781388 1.44417778 -109.21289062 1.47265625 C-104.97988692 1.53930319 -100.74800425 1.61614651 -96.51635742 1.74365234 C-95.66619553 1.76857758 -94.81603363 1.79350281 -93.94010925 1.81918335 C-92 2 -92 2 -91 3 C-91 2.67 -91 2.34 -91 2 C-80.61170758 1.84563912 -70.22334668 1.69746466 -59.83485603 1.5570364 C-55.01029782 1.49162841 -50.18578779 1.42414536 -45.36132812 1.35180664 C-40.69944977 1.28198393 -36.03752389 1.2177602 -31.37551498 1.15730476 C-29.60303862 1.13335763 -27.83058763 1.10744387 -26.05817032 1.07946587 C-17.29207703 0.94230922 -8.71260796 0.84583204 0 2 C0 1.34 0 0.68 0 0 Z " fill="#CFD7FF" transform="translate(286,269)"/>
<path d="M0 0 C11.88 0 23.76 0 36 0 C38.64 5.28 41.28 10.56 44 16 C48.4560582 24.35994048 48.4560582 24.35994048 53.71875 32.21875 C55.40144852 34.55811135 55.23443772 36.18674741 55 39 C54.13375 38.67 53.2675 38.34 52.375 38 C48.00616824 36.70553133 44.69447551 36.65340274 40.25 37.5625 C37.6100229 38.92752288 37.6100229 38.92752288 36.6875 42.625 C36.460625 43.73875 36.23375 44.8525 36 46 C35.35933594 46.00257813 34.71867187 46.00515625 34.05859375 46.0078125 C28.48505243 46.25700213 24.33333346 46.96931096 20.20703125 50.90234375 C17.73040711 55.20637988 18.51232911 60.21618083 19 65 C18.18015625 65.29132813 17.3603125 65.58265625 16.515625 65.8828125 C9.60039425 68.24772766 9.60039425 68.24772766 4.1875 72.875 C2.67383105 76.85833934 2.74247744 78.93154466 4 83 C6.18991597 85.58297781 7.96831688 87.48415844 11 89 C13.12318064 89.0972886 15.24959691 89.12977619 17.375 89.125 C18.51710937 89.12757813 19.65921875 89.13015625 20.8359375 89.1328125 C23.43236152 89.0238268 25.53624883 88.76461243 28 88 C28.45375 88.845625 28.9075 89.69125 29.375 90.5625 C31.69096739 93.20016277 31.69096739 93.20016277 34.31640625 93.25 C39.66268863 92.86755357 43.14974505 91.97859679 47 88 C47.18433594 88.72445312 47.36867187 89.44890625 47.55859375 90.1953125 C49.48233258 96.60777525 51.44839506 100.65968596 57.3671875 104.0390625 C63.50142913 106.27796968 70.1547133 106.04003047 76.1875 103.5625 C78.82686846 102.26470525 78.82686846 102.26470525 80 101 C81.77302 100.90501679 83.54659885 100.81589881 85.32128906 100.76025391 C94.74420225 100.44559365 101.4115197 98.83729254 109 93 C109.99 93 110.98 93 112 93 C113.12060865 94.15456648 114.23679202 95.31381636 115.328125 96.49609375 C118.20342947 99.08252418 121.61767713 100.80306516 124.98828125 102.66796875 C125.65214844 103.10753906 126.31601562 103.54710937 127 104 C127 104.66 127 105.32 127 106 C127.680625 106.0825 128.36125 106.165 129.0625 106.25 C132.8746907 107.22332528 135.64070329 108.95807455 139 111 C139 112.32 139 113.64 139 115 C135.55121847 116.72439077 131.57188932 116.1285325 127.77685547 116.11352539 C126.8207135 116.11367142 125.86457153 116.11381744 124.87945557 116.1139679 C121.70867673 116.1132694 118.53795612 116.1054799 115.3671875 116.09765625 C113.17286206 116.09579185 110.97853621 116.09436805 108.78421021 116.09336853 C103.00065976 116.0895451 97.2171343 116.07971628 91.43359375 116.06866455 C85.53515969 116.0584467 79.6367216 116.05387011 73.73828125 116.04882812 C62.15884317 116.03809388 50.57942366 116.02101953 39 116 C39.66 115.67 40.32 115.34 41 115 C41 114.34 41 113.68 41 113 C39.68 112.34 38.36 111.68 37 111 C36.67 111.33 36.34 111.66 36 112 C34.33382885 112.04063832 32.66611905 112.042721 31 112 C31.33 113.32 31.66 114.64 32 116 C21.44 116 10.88 116 0 116 C0 77.72 0 39.44 0 0 Z " fill="#344D9C" transform="translate(146,142)"/>
<path d="M0 0 C31.35 0 62.7 0 95 0 C97.50492798 20.03942381 97.50492798 20.03942381 92 29 C90 31 90 31 87.625 31.875 C84.904675 32.82169727 84.904675 32.82169727 83.20703125 35.0078125 C80.4481701 37.49811195 78.72043276 37.63097778 75.0625 38 C70.26233979 38.65483306 67.42048617 39.35148142 64 43 C63.34 43.66 62.68 44.32 62 45 C57.41277463 37.81293028 53.11481794 30.53559589 49.125 23 C48.5537439 21.92407593 48.5537439 21.92407593 47.97094727 20.82641602 C46.09177279 17.24051095 44.51375964 13.78439909 43 10 C31.12 9.67 19.24 9.34 7 9 C7.08378906 11.99964844 7.16757813 14.99929687 7.25390625 18.08984375 C7.33147542 21.01892563 7.40692636 23.94805503 7.48217773 26.87719727 C7.53530455 28.90134507 7.5906078 30.92543703 7.64819336 32.94946289 C7.73092968 35.87113406 7.80564531 38.79292143 7.87890625 41.71484375 C7.90594131 42.60896469 7.93297638 43.50308563 7.96083069 44.42430115 C8.09233377 50.05323259 7.73479791 55.41603073 7 61 C7.99 61.33 8.98 61.66 10 62 C9.01 62 8.02 62 7 62 C7.01474869 62.73027405 7.02949738 63.4605481 7.04469299 64.21295166 C7.18280685 71.09876559 7.31576985 77.98466184 7.4429636 84.87068558 C7.50853466 88.4107605 7.57608916 91.9507743 7.64819336 95.49072266 C7.73102106 99.56142571 7.80519126 103.63224666 7.87890625 107.703125 C7.90594131 108.97303284 7.93297638 110.24294067 7.96083069 111.55133057 C7.98092697 112.73225281 8.00102325 113.91317505 8.02172852 115.12988281 C8.04171402 116.16912903 8.06169952 117.20837524 8.08229065 118.27911377 C8.00888983 120.70606351 7.70575859 122.68854829 7 125 C7.55349121 124.96970703 8.10698242 124.93941406 8.67724609 124.90820312 C11.24302269 124.76936818 13.80900152 124.63466942 16.375 124.5 C17.68017578 124.42845703 17.68017578 124.42845703 19.01171875 124.35546875 C25.01362761 124.04425866 30.99044443 123.94176474 37 124 C37.495 122.515 37.495 122.515 38 121 C39.65 121 41.3 121 43 121 C43.33 120.34 43.66 119.68 44 119 C46 120.375 46 120.375 48 122 C48 122.66 48 123.32 48 124 C80.34 124 112.68 124 146 124 C146 123.34 146 122.68 146 122 C147.32 122 148.64 122 150 122 C150 122.66 150 123.32 150 124 C172.11 124.33 194.22 124.66 217 125 C217 112.46 217 99.92 217 87 C219.97 86.505 219.97 86.505 223 86 C223 101.33333333 223 116.66666667 223 132 C218.89564772 131.85912664 214.79156921 131.71137528 210.6875 131.5625 C209.53958984 131.52318359 208.39167969 131.48386719 207.20898438 131.44335938 C200.11055094 131.18194398 193.06590675 130.73033786 186 130 C186 129.34 186 128.68 186 128 C185.34 128 184.68 128 184 128 C184 128.66 184 129.32 184 130 C123.28 130 62.56 130 0 130 C0 87.1 0 44.2 0 0 Z M196 128 C196.66 128.66 197.32 129.32 198 130 C198 129.34 198 128.68 198 128 C197.34 128 196.68 128 196 128 Z " fill="#5875FE" transform="translate(139,133)"/>
<path d="M0 0 C8.69293191 4.25476836 13.14106876 10.99963804 16.6875 19.875 C17.14867291 21.24224204 17.58446015 22.61820483 18 24 C18.25523437 24.8353125 18.51046875 25.670625 18.7734375 26.53125 C21.69605591 37.064251 22.91652725 48.09958101 23.1328125 59.015625 C23.15456543 59.82950684 23.17631836 60.64338867 23.19873047 61.48193359 C23.23214961 63.04181198 23.24021715 64.60250237 23.21923828 66.16259766 C23.209614 68.58222069 23.209614 68.58222069 24 72 C26.78108689 74.34017079 26.78108689 74.34017079 30 76 C31.86328125 78 31.86328125 78 33.3125 80 C33.80363281 80.66 34.29476562 81.32 34.80078125 82 C37.78689756 86.98010278 37.18361376 92.63049487 37.1875 98.25 C37.19974609 99.16652344 37.21199219 100.08304687 37.22460938 101.02734375 C37.23675949 106.70549676 36.61728004 111.55366564 35 117 C33.68 117 32.36 117 31 117 C30.84144531 116.154375 30.68289063 115.30875 30.51953125 114.4375 C29.1023504 107.54733894 27.64148428 101.45336107 23 96 C22.01 95.505 22.01 95.505 21 95 C21.33 96.32 21.66 97.64 22 99 C22 102.3 22 105.6 22 109 C7.48 109 -7.04 109 -22 109 C-22 105.37 -22 101.74 -22 98 C-22.99 98.99 -23.98 99.98 -25 101 C-25.66 101 -26.32 101 -27 101 C-28.32 106.94 -29.64 112.88 -31 119 C-32.65 118.67 -34.3 118.34 -36 118 C-39.17284592 105.9601829 -39.8616534 93.28416014 -34 82 C-31.23808097 77.50148973 -27.93642183 74.93164332 -23 73 C-22.01 73 -21.02 73 -20 73 C-19.67 79.6 -19.34 86.2 -19 93 C-10.53016131 83.11852153 -6.03159956 74.3285146 -2 62 C-1.33333333 60 -0.66666667 58 0 56 C-0.61488281 55.76925781 -1.22976562 55.53851563 -1.86328125 55.30078125 C-8.43710021 52.64818763 -8.43710021 52.64818763 -11.0625 49.625 C-12.20741246 46.41924512 -12.48351014 44.38457099 -12 41 C-9.96006092 37.3421782 -8.49580738 35.33053826 -5 33 C-2.51953125 32.8046875 -2.51953125 32.8046875 0.1875 32.875 C1.08855469 32.89304688 1.98960937 32.91109375 2.91796875 32.9296875 C3.60503906 32.95289063 4.29210937 32.97609375 5 33 C5.33 30.36 5.66 27.72 6 25 C4.62328125 25.03480469 4.62328125 25.03480469 3.21875 25.0703125 C-3.56823816 25.17012115 -9.5193285 25.07381488 -16 23 C-13.33132673 12.88713287 -8.17170249 6.38263153 0 0 Z " fill="#C0BBE3" transform="translate(249,11)"/>
<path d="M0 0 C-0.97866338 1.14626322 -1.95794587 2.29199788 -2.9375 3.4375 C-3.48277344 4.07558594 -4.02804688 4.71367187 -4.58984375 5.37109375 C-5.36795695 6.26991149 -6.15936528 7.15936528 -7 8 C-7.50070321 11.37357334 -7.50070321 11.37357334 -7 15 C-4.60140956 17.33630748 -4.60140956 17.33630748 -2 19 C-2 19.66 -2 20.32 -2 21 C-6.38461538 24 -6.38461538 24 -9 24 C-9 26.64 -9 29.28 -9 32 C-7.741875 32.103125 -6.48375 32.20625 -5.1875 32.3125 C-1.57674552 32.74175053 -0.54270663 33.45729337 2 36 C6.32351988 36.56045628 8.29704773 36.4786058 11.9375 34 C12.618125 33.34 13.29875 32.68 14 32 C17.44136814 33.30808665 20.59323009 34.84634037 23.8125 36.625 C28.68598353 39.0509118 31.59156298 39.87232855 37 39 C40.2471922 37.40757241 43.42623221 35.57376779 46 33 C49.72797145 33.00919352 53.44190342 33.13348844 57.16796875 33.2578125 C61.26959038 32.98186242 63.55501797 32.19687367 67 30 C68.38617389 28.03625365 69.73012031 26.04087808 71 24 C71.66 24 72.32 24 73 24 C73.598125 24.66 74.19625 25.32 74.8125 26 C76.82717183 28.23051733 76.82717183 28.23051733 79.5625 28.3125 C82.13421051 28.06249753 82.13421051 28.06249753 85 27 C85.33 25.35 85.66 23.7 86 22 C86.66 22 87.32 22 88 22 C88.99 23.2684375 88.99 23.2684375 90 24.5625 C96.18651501 32.23668137 106.05120014 38.16916523 115.875 39.34375 C124.51206195 39.61365819 133.33600476 38.27007382 140.875 33.875 C144.56966928 31.81124122 147.79925852 31.71857851 152 31.5625 C158.39227153 31.29501224 162.05399512 29.93553077 167 26 C167.99 25.505 167.99 25.505 169 25 C168.4895292 29.46661951 167.26608253 31.89323857 164 35 C160.0666957 36.95620975 155.94357602 38.35328192 151.78125 39.73828125 C146.95306674 41.40029049 143.92945563 43.64358998 140 47 C135.33522343 49.91548536 131.62578216 51.56257822 126 51 C125.67 51.66 125.34 52.32 125 53 C101.99060395 50.83037953 101.99060395 50.83037953 95.375 43.25 C94.56277602 42.18199278 93.76278125 41.1038623 93 40 C92.2575 40.78375 91.515 41.5675 90.75 42.375 C86.50447227 46.42754919 86.50447227 46.42754919 84 47 C81.22121318 46.23971536 78.62303643 45.18418635 76 44 C75.814375 44.556875 75.62875 45.11375 75.4375 45.6875 C72.19282772 50.90719018 66.788656 53.44576659 61 55 C57.57079734 55.26822476 54.1823949 55.41231166 50.74609375 55.47851562 C46.45732072 55.64471571 44.22498179 56.19784916 41 59 C35.20741566 61.01844691 28.04205401 61.21772029 22.35546875 58.94140625 C15.80319462 54.93180566 13.35793424 50.07380271 11 43 C10.54625 43.639375 10.0925 44.27875 9.625 44.9375 C5.76278543 47.97209716 1.85680278 48.50215732 -3 48 C-6.125 45.5625 -6.125 45.5625 -8 43 C-9.485 43.495 -9.485 43.495 -11 44 C-16.89350737 44.47997857 -22.20091151 44.83750671 -27.625 42.3125 C-30.10736642 39.89545901 -31.72319545 38.22956446 -33 35 C-32.93171681 31.17614153 -32.36491377 28.68223009 -30.5625 25.3125 C-26.77703527 21.8963489 -21.22707595 19 -16 19 C-16.33 18.34 -16.66 17.68 -17 17 C-17.78771406 12.55794236 -18.09428035 8.65015149 -15.53125 4.78515625 C-10.67317244 0.07166433 -6.62587788 -0.96627386 0 0 Z " fill="#5372FE" transform="translate(181,188)"/>
<path d="M0 0 C1.25296875 -0.00128906 2.5059375 -0.00257813 3.796875 -0.00390625 C5.09367187 -0.00003906 6.39046875 0.00382812 7.7265625 0.0078125 C9.66015625 0.00201172 9.66015625 0.00201172 11.6328125 -0.00390625 C12.88835937 -0.00261719 14.14390625 -0.00132812 15.4375 0 C16.5723584 0.00112793 17.7072168 0.00225586 18.87646484 0.00341797 C22.03512518 0.12103002 25.0848013 0.48819959 28.21432495 0.90820312 C32.1468898 1.32148939 36.08119413 1.25447477 40.03125 1.23046875 C40.92522491 1.2290538 41.81919983 1.22763885 42.74026489 1.22618103 C45.56906625 1.2206289 48.3977855 1.20809167 51.2265625 1.1953125 C53.14843634 1.19029075 55.07031145 1.18572903 56.9921875 1.18164062 C61.77867431 1.17049487 66.56510376 1.15247128 71.3515625 1.1328125 C72.0115625 1.1328125 72.6715625 1.1328125 73.3515625 1.1328125 C74.25261719 1.05426025 75.15367187 0.97570801 76.08203125 0.89477539 C98.69596132 -0.99770393 98.69596132 -0.99770393 104.60107422 2.44384766 C107.98088219 5.80993649 109.87190928 9.86274494 111.6015625 14.26171875 C112.57442175 16.6887999 113.8834923 18.80778958 115.2890625 21.0078125 C115.97355469 22.17183594 115.97355469 22.17183594 116.671875 23.359375 C118.92727197 27.08340256 121.2935474 30.73129818 123.6640625 34.3828125 C124.13424805 35.10782959 124.60443359 35.83284668 125.08886719 36.57983398 C127.40565924 40.14818532 129.73020952 43.71129321 132.0625 47.26953125 C132.88807667 48.53642195 133.71360027 49.80334723 134.5390625 51.0703125 C134.92553955 51.65522461 135.3120166 52.24013672 135.71020508 52.84277344 C138.3515625 56.90677485 138.3515625 56.90677485 138.3515625 59.1328125 C82.2515625 59.1328125 26.1515625 59.1328125 -31.6484375 59.1328125 C-31.6484375 58.1428125 -31.6484375 57.1528125 -31.6484375 56.1328125 C-12.8384375 56.1328125 5.9715625 56.1328125 25.3515625 56.1328125 C23.7015625 51.5128125 22.0515625 46.8928125 20.3515625 42.1328125 C19.3615625 41.8028125 18.3715625 41.4728125 17.3515625 41.1328125 C17.3515625 40.4728125 17.3515625 39.8128125 17.3515625 39.1328125 C18.33253906 39.14441406 19.31351562 39.15601563 20.32421875 39.16796875 C35.83629924 39.34312211 35.83629924 39.34312211 51.21484375 37.61914062 C57.082264 36.77279243 63.02802845 37.01082586 68.94140625 37.03515625 C70.24106827 37.0365712 71.54073029 37.03798615 72.879776 37.03944397 C76.31399503 37.04323916 79.74817092 37.05304342 83.18237305 37.06414795 C86.69514381 37.07442695 90.20792162 37.07895542 93.72070312 37.08398438 C100.59767383 37.09466874 107.47461609 37.11170862 114.3515625 37.1328125 C113.3615625 34.6578125 113.3615625 34.6578125 112.3515625 32.1328125 C111.6915625 32.1328125 111.0315625 32.1328125 110.3515625 32.1328125 C109.6090625 30.5240625 109.6090625 30.5240625 108.8515625 28.8828125 C106.40388147 23.96113129 103.3492534 19.49795291 100.25390625 14.96484375 C98.3515625 12.1328125 98.3515625 12.1328125 97.25561523 9.48413086 C95.45649149 6.72052717 95.45649149 6.72052717 91.63720703 6.58105469 C90.08593306 6.58862673 88.53464504 6.62337532 86.984375 6.6796875 C86.15380585 6.68913391 85.32323669 6.69858032 84.46749878 6.70831299 C81.80286329 6.74292148 79.14044649 6.81151868 76.4765625 6.8828125 C73.00012962 6.94951896 69.52355965 7.00299028 66.046875 7.0546875 C65.20309799 7.06950668 64.35932098 7.08432587 63.48997498 7.09959412 C57.64987424 7.18144213 51.9143675 6.91007515 46.09570312 6.36865234 C42.23717752 6.03703884 38.40863121 6.02075152 34.5390625 6.0703125 C33.83458984 6.07482422 33.13011719 6.07933594 32.40429688 6.08398438 C30.72001241 6.09544209 29.03577353 6.11335435 27.3515625 6.1328125 C27.3515625 5.4728125 27.3515625 4.8128125 27.3515625 4.1328125 C26.6915625 4.1328125 26.0315625 4.1328125 25.3515625 4.1328125 C25.3515625 4.7928125 25.3515625 5.4528125 25.3515625 6.1328125 C20.42198991 6.20695571 15.49274169 6.26141067 10.56274414 6.29760742 C8.8856033 6.31269634 7.20850193 6.33316998 5.53149414 6.35913086 C3.12115746 6.39551061 0.71134231 6.41253736 -1.69921875 6.42578125 C-2.44931717 6.44126511 -3.19941559 6.45674896 -3.97224426 6.47270203 C-9.15891958 6.47437978 -9.15891958 6.47437978 -11.64526367 4.73950195 C-12.6484375 3.1328125 -12.6484375 3.1328125 -12.6484375 1.1328125 C-8.37913283 0.32057184 -4.34346348 0.00432554 0 0 Z " fill="#5775FF" transform="translate(260.6484375,264.8671875)"/>
<path d="M0 0 C52.14 0 104.28 0 158 0 C145.68081286 12.31918714 129.50562854 19.11150867 113 24 C111.9996875 24.30808594 110.999375 24.61617188 109.96875 24.93359375 C91.05801618 30.48463781 67.91934991 30.13148401 49 25 C48.03449219 24.80664062 47.06898438 24.61328125 46.07421875 24.4140625 C29.88261406 21.0398986 12.04952565 12.36098133 0 1 C0 0.67 0 0.34 0 0 Z " fill="#B6C3FE" transform="translate(171,332)"/>
<path d="M0 0 C0.33 0 0.66 0 1 0 C0.99887207 1.20422607 0.99774414 2.40845215 0.99658203 3.64916992 C1.0002917 8.17665086 1.04343457 12.70309047 1.09765625 17.23022461 C1.11566958 19.17839791 1.12341177 21.12669738 1.12011719 23.07495117 C1.10745245 35.40724087 1.92492346 44.09635074 8 55 C9.09171357 57.77063237 9.94612911 60.57190269 10.75 63.4375 C11.04197266 64.38979492 11.04197266 64.38979492 11.33984375 65.36132812 C14.75474835 77.15306246 15.34290587 89.23258276 15.3125 101.4375 C15.32861328 102.72720703 15.34472656 104.01691406 15.36132812 105.34570312 C15.36796608 118.60169982 13.03813135 130.69877574 8 143 C5.7237025 140.88068854 4.09613367 139.19566352 2.71459961 136.38378906 C1.22250661 133.74673357 1.22250661 133.74673357 -1.57202148 133.44824219 C-2.57821533 133.48079102 -3.58440918 133.51333984 -4.62109375 133.546875 C-5.72130859 133.5675 -6.82152344 133.588125 -7.95507812 133.609375 C-9.10427734 133.65578125 -10.25347656 133.7021875 -11.4375 133.75 C-13.70692649 133.81130133 -15.97646107 133.86875311 -18.24609375 133.921875 C-19.25341553 133.95893555 -20.2607373 133.99599609 -21.29858398 134.03417969 C-23.7397665 134.00329261 -25.67898549 133.71437089 -28 133 C-28.33 133.66 -28.66 134.32 -29 135 C-29.33 134.67 -29.66 134.34 -30 134 C-33.02068757 133.92353658 -36.01879014 133.90938889 -39.0390625 133.9375 C-39.95327972 133.94128662 -40.86749695 133.94507324 -41.80941772 133.94897461 C-45.73384003 133.96535335 -49.65815968 133.99329581 -53.58251953 134.02050781 C-56.44302889 134.03867585 -59.30352078 134.05072577 -62.1640625 134.0625 C-63.48321152 134.07494751 -63.48321152 134.07494751 -64.82901001 134.08764648 C-68.41901434 134.1018125 -71.79135401 134.03114936 -75.34912109 133.5 C-80.65245185 132.77369123 -85.90428618 132.89800154 -91.25 132.9375 C-92.42208008 132.94128662 -93.59416016 132.94507324 -94.80175781 132.94897461 C-98.53454324 132.96115214 -102.26725002 132.97977612 -106 133 C-110.91666474 133.02663828 -115.83329005 133.04661566 -120.75 133.0625 C-121.8730957 133.07079834 -122.99619141 133.07909668 -124.15332031 133.08764648 C-125.74031738 133.09260132 -125.74031738 133.09260132 -127.359375 133.09765625 C-128.28202148 133.10289307 -129.20466797 133.10812988 -130.15527344 133.11352539 C-133 133 -133 133 -136.32667542 132.50672913 C-140.369845 131.94898049 -144.34141401 131.82588986 -148.41381836 131.79467773 C-149.2243869 131.78477814 -150.03495544 131.77487854 -150.87008667 131.76467896 C-153.52664352 131.73330583 -156.1832182 131.70840307 -158.83984375 131.68359375 C-160.6907241 131.66300329 -162.54159998 131.64200629 -164.39247131 131.62062073 C-169.2470434 131.56561605 -174.1016564 131.51611213 -178.95629883 131.46777344 C-183.91686615 131.41739998 -188.87737459 131.36179688 -193.83789062 131.30664062 C-203.55854336 131.19932357 -213.27924738 131.09782064 -223 131 C-223 132.32 -223 133.64 -223 135 C-224.485 135.99 -224.485 135.99 -226 137 C-226 137.99 -226 138.98 -226 140 C-226.99 140 -227.98 140 -229 140 C-228.67 141.32 -228.34 142.64 -228 144 C-229.32 144.33 -230.64 144.66 -232 145 C-232.98697159 141.64808052 -233.96314756 138.29310737 -234.9375 134.9375 C-235.21529297 133.99455078 -235.49308594 133.05160156 -235.77929688 132.08007812 C-236.18051758 130.69272461 -236.18051758 130.69272461 -236.58984375 129.27734375 C-236.83597412 128.43421631 -237.08210449 127.59108887 -237.33569336 126.72241211 C-239.31934815 118.59314546 -239.24276636 110.439768 -239.25 102.125 C-239.25067474 101.43025574 -239.25134949 100.73551147 -239.25204468 100.01971436 C-239.23561471 89.37340229 -238.67208277 79.35566212 -236 69 C-235.82839355 68.30310059 -235.65678711 67.60620117 -235.47998047 66.88818359 C-232.89421706 56.52895449 -229.14606102 47.35782279 -224 38 C-223.67 38 -223.34 38 -223 38 C-223 51.53 -223 65.06 -223 79 C-222.34 79.33 -221.68 79.66 -221 80 C-221.66 80 -222.32 80 -223 80 C-222.88961143 80.91354752 -222.88961143 80.91354752 -222.7769928 81.84555054 C-222.10528713 87.8566481 -221.92275278 93.68619531 -222.12109375 99.7265625 C-222.14470474 100.60025482 -222.16831573 101.47394714 -222.19264221 102.37411499 C-222.26831991 105.12461635 -222.35274736 107.87476489 -222.4375 110.625 C-222.4908171 112.50649399 -222.54355655 114.38800445 -222.59570312 116.26953125 C-222.72380259 120.84657133 -222.85974168 125.42331704 -223 130 C-222.2069043 129.92935333 -221.41380859 129.85870667 -220.59667969 129.78591919 C-210.4653787 128.96466487 -200.40839748 128.85415008 -190.25 128.8671875 C-188.41855856 128.86616856 -186.58711727 128.86482722 -184.75567627 128.8631897 C-179.85212513 128.86049987 -174.94860589 128.86494455 -170.0450592 128.87142944 C-166.99207464 128.87500929 -163.9390948 128.87662125 -160.8861084 128.87768555 C-120.25243537 128.89523841 -79.62789649 129.34144968 -39 130 C-39 129.34 -39 128.68 -39 128 C-38.34 128 -37.68 128 -37 128 C-37 128.66 -37 129.32 -37 130 C-36.42636719 129.98839844 -35.85273438 129.97679687 -35.26171875 129.96484375 C-28.9104304 129.89737938 -22.59126517 130.11408504 -16.25 130.4375 C-15.44651123 130.47673584 -14.64302246 130.51597168 -13.81518555 130.55639648 C-9.15578692 130.8073057 -4.60854248 131.26682279 0 132 C-0.33 131.01 -0.66 130.02 -1 129 C-1.07029121 126.42734182 -1.09370832 123.88358569 -1.0625 121.3125 C-1.05798828 120.61060547 -1.05347656 119.90871094 -1.04882812 119.18554688 C-1.03706927 117.45699462 -1.01913454 115.72848635 -1 114 C-1.66 113.67 -2.32 113.34 -3 113 C-2.01 112.67 -1.02 112.34 0 112 C-0.05329468 111.13834229 -0.05329468 111.13834229 -0.10766602 110.25927734 C-0.26624021 107.63155213 -0.41445034 105.00333834 -0.5625 102.375 C-0.61857422 101.47136719 -0.67464844 100.56773437 -0.73242188 99.63671875 C-0.99066718 94.91943783 -1.04292737 90.65068353 0 86 C-2.475 86.99 -2.475 86.99 -5 88 C-4.67 87.01 -4.34 86.02 -4 85 C-1.9375 84.3125 -1.9375 84.3125 0 84 C-0.04887611 83.1568927 -0.04887611 83.1568927 -0.09873962 82.29675293 C-1.05762694 65.02057105 -0.97466416 47.83130142 -0.60510254 30.53833008 C-0.53277375 27.0777394 -0.46896256 23.61699085 -0.40429688 20.15625 C-0.27756366 13.43732931 -0.14188463 6.71861747 0 0 Z M-27 128 C-26.34 128 -25.68 128 -25 128 C-25.33 128.66 -25.66 129.32 -26 130 C-26.33 129.34 -26.66 128.68 -27 128 Z " fill="#B4C2FF" transform="translate(362,133)"/>
<path d="M0 0 C98.67 0 197.34 0 299 0 C298 6 298 6 297 7 C295.43383158 7.09966791 293.86316017 7.12923252 292.29382515 7.13142776 C290.75743627 7.13718948 290.75743627 7.13718948 289.19000924 7.1430676 C288.05102964 7.14220112 286.91205004 7.14133463 285.73855591 7.14044189 C283.93960273 7.14489858 283.93960273 7.14489858 282.10430706 7.1494453 C278.7602798 7.15664889 275.4163039 7.15930641 272.07227254 7.16004276 C268.47164787 7.16188848 264.87103446 7.16943335 261.27041626 7.17617798 C253.39036161 7.18978163 245.51031203 7.19578917 237.63024759 7.20018864 C232.71364006 7.20294762 227.79703451 7.20718433 222.88042831 7.21169281 C209.27854854 7.2238881 195.67667036 7.23418692 182.07478523 7.2375679 C181.20359733 7.23778747 180.33240943 7.23800703 179.4348219 7.23823325 C178.12484155 7.23856067 178.12484155 7.23856067 176.78839695 7.2388947 C175.01859927 7.23933817 173.24880159 7.23978474 171.47900391 7.24023438 C170.16217144 7.24056652 170.16217144 7.24056652 168.8187363 7.24090537 C154.5879782 7.24485491 140.35727126 7.26231251 126.12653293 7.2855939 C111.53011456 7.30928158 96.93372188 7.32176857 82.33728397 7.32293582 C74.1362364 7.32385404 65.93525548 7.32964305 57.73422623 7.34775543 C50.75181707 7.36312162 43.76949515 7.36829758 36.78707232 7.36001733 C33.22215889 7.3560984 29.65742132 7.35710046 26.0925293 7.37107468 C22.23341307 7.38606439 18.37454719 7.37798392 14.51541138 7.36749268 C13.38089322 7.37554908 12.24637507 7.38360548 11.07747757 7.39190602 C10.04800283 7.38531618 9.01852808 7.37872633 7.95785713 7.3719368 C7.06643615 7.37253389 6.17501517 7.37313097 5.25658143 7.37374616 C3 7 3 7 1.19013393 5.72675395 C0 4 0 4 0 0 Z " fill="#324B9A" transform="translate(101,325)"/>
<path d="M0 0 C0.33 0 0.66 0 1 0 C1 1.98 1 3.96 1 6 C1.52464844 6.12375 2.04929687 6.2475 2.58984375 6.375 C16.74081087 10.14231238 32.68636411 17.42062539 43 28 C34.35086046 28.16231827 25.70224643 28.28663103 17.05191517 28.3626852 C13.03495741 28.39919154 9.01904285 28.448689 5.00268555 28.52807617 C1.12521336 28.60423693 -2.75125682 28.64600986 -6.62941933 28.6641407 C-8.10751434 28.67705751 -9.58555553 28.70228336 -11.06322289 28.7401104 C-22.76480774 29.02769835 -22.76480774 29.02769835 -25.89416504 26.42402649 C-27.17651367 24.50878906 -27.17651367 24.50878906 -29 21 C-31.11612069 20.00415199 -31.11612069 20.00415199 -33.3203125 20.17578125 C-34.10277344 20.18029297 -34.88523437 20.18480469 -35.69140625 20.18945312 C-36.49449219 20.23005859 -37.29757813 20.27066406 -38.125 20.3125 C-38.93582031 20.31056641 -39.74664062 20.30863281 -40.58203125 20.30664062 C-45.20308081 20.35196799 -45.20308081 20.35196799 -48.9296875 22.79296875 C-49.28289062 23.52128906 -49.63609375 24.24960938 -50 25 C-50.66 26.32 -51.32 27.64 -52 29 C-72.79 28.67 -93.58 28.34 -115 28 C-111.5423776 24.5423776 -108.3295215 22.13362207 -104.1875 19.6875 C-103.53531494 19.30013672 -102.88312988 18.91277344 -102.21118164 18.51367188 C-93.61165619 13.49788258 -84.88265958 8.64710993 -75 7 C-74.01 12.61 -73.02 18.22 -72 24 C-70.68 24.33 -69.36 24.66 -68 25 C-67.96261719 24.28714844 -67.92523438 23.57429688 -67.88671875 22.83984375 C-67.48160779 16.93793309 -67.03745309 12.13224833 -64 7 C-62.07499277 5.34999381 -60.23558028 4.24198905 -58 3 C-58.33 6.96 -58.66 10.92 -59 15 C-44.48 15 -29.96 15 -15 15 C-15.33 10.38 -15.66 5.76 -16 1 C-10.49912686 3.75043657 -9.0808313 7.35202932 -7 13 C-6.37545549 16.3399554 -6.07945036 19.60530292 -6 23 C-4.68 23 -3.36 23 -2 23 C-1.34 15.41 -0.68 7.82 0 0 Z " fill="#B7C3FD" transform="translate(286,105)"/>
<path d="M0 0 C33 0 66 0 100 0 C100 27.72 100 55.44 100 84 C98.02 84.66 96.04 85.32 94 86 C94 73.66666667 94 61.33333333 94 49 C93.814375 47.845 93.62875 46.69 93.4375 45.5 C93.05210432 42.49092357 93.04422269 39.87906322 93.46875 36.87890625 C94.09793303 31.71886085 94.11202009 26.62949098 94.0625 21.4375 C94.05798828 20.52419922 94.05347656 19.61089844 94.04882812 18.66992188 C94.0371874 16.44654262 94.02083851 14.22330879 94 12 C94.66 12 95.32 12 96 12 C96 11.34 96 10.68 96 10 C95.34 10 94.68 10 94 10 C94 9.34 94 8.68 94 8 C79.81 8 65.62 8 51 8 C51 8.66 51 9.32 51 10 C33.96760808 10.11165965 17.00844253 10.05129446 0 9 C0 6.03 0 3.06 0 0 Z " fill="#5573FE" transform="translate(262,133)"/>
<path d="M0 0 C31.35 0 62.7 0 95 0 C95 2.64 95 5.28 95 8 C65.63 8 36.26 8 6 8 C6 37.7 6 67.4 6 98 C3.03 98.495 3.03 98.495 0 99 C0 66.33 0 33.66 0 0 Z " fill="#5573FE" transform="translate(139,133)"/>
<path d="M0 0 C0.47975654 7.87600323 0.20510753 14.15518994 -4 21 C-6 23 -6 23 -8.375 23.875 C-11.095325 24.82169727 -11.095325 24.82169727 -12.79296875 27.0078125 C-15.5518299 29.49811195 -17.27956724 29.63097778 -20.9375 30 C-25.73766021 30.65483306 -28.57951383 31.35148142 -32 35 C-32.66 35.66 -33.32 36.32 -34 37 C-38.57550358 29.83129549 -42.87641659 22.56875651 -46.875 15.0625 C-47.2558374 14.35359619 -47.6366748 13.64469238 -48.02905273 12.91430664 C-48.38813721 12.23231201 -48.74722168 11.55031738 -49.1171875 10.84765625 C-49.43284668 10.24961182 -49.74850586 9.65156738 -50.07373047 9.03540039 C-51.26368915 6.42056499 -52.12573951 3.73430168 -53 1 C-52.06430176 1.00523682 -51.12860352 1.01047363 -50.16455078 1.01586914 C-33.42733706 1.09719771 -16.69180597 0 0 0 Z " fill="#95A8FE" transform="translate(235,141)"/>
<path d="M0 0 C0.33 0 0.66 0 1 0 C1 13.53 1 27.06 1 41 C1.66 41.33 2.32 41.66 3 42 C2.01 42 1.02 42 0 42 C0.00444122 42.66541306 0.00888245 43.33082611 0.01345825 44.0164032 C0.05771137 50.9431239 0.08787475 57.86980443 0.10986328 64.79663086 C0.11991967 67.38160839 0.13356649 69.96657455 0.15087891 72.55151367 C0.17514271 76.26744392 0.18648684 79.98322373 0.1953125 83.69921875 C0.20563507 84.85459641 0.21595764 86.00997406 0.22659302 87.20036316 C0.22674408 88.28110611 0.22689514 89.36184906 0.22705078 90.4753418 C0.231492 91.42354294 0.23593323 92.37174408 0.24050903 93.34867859 C-0.02574346 96.28379058 -0.62172192 98.3954606 -2 101 C-3.485 101.495 -3.485 101.495 -5 102 C-4.67 103.32 -4.34 104.64 -4 106 C-5.98 106.495 -5.98 106.495 -8 107 C-8.98697159 103.64808052 -9.96314756 100.29310737 -10.9375 96.9375 C-11.35418945 95.52307617 -11.35418945 95.52307617 -11.77929688 94.08007812 C-12.04677734 93.15517578 -12.31425781 92.23027344 -12.58984375 91.27734375 C-12.95903931 90.01265259 -12.95903931 90.01265259 -13.33569336 88.72241211 C-15.31934815 80.59314546 -15.24276636 72.439768 -15.25 64.125 C-15.25067474 63.43025574 -15.25134949 62.73551147 -15.25204468 62.01971436 C-15.23561471 51.37340229 -14.67208277 41.35566212 -12 31 C-11.82839355 30.30310059 -11.65678711 29.60620117 -11.47998047 28.88818359 C-8.89421706 18.52895449 -5.14606102 9.35782279 0 0 Z " fill="#B6C3FF" transform="translate(138,171)"/>
<path d="M0 0 C0.79019531 0.165 1.58039063 0.33 2.39453125 0.5 C6.85940827 1.11918121 11.18846118 1.06884528 15.6875 1 C17.37884188 0.97447031 19.07025935 0.95344463 20.76171875 0.9375 C21.50381592 0.92589844 22.24591309 0.91429687 23.01049805 0.90234375 C25 1 25 1 28 2 C28.33 1.34 28.66 0.68 29 0 C29.99 0.495 29.99 0.495 31 1 C33.20784668 1.04635899 35.41699062 1.03782457 37.625 1 C42.87426071 0.95679621 47.82214038 1.17154246 53 2 C53 2.33 53 2.66 53 3 C49.6046836 3.19777236 46.20874308 3.38139685 42.8125 3.5625 C41.85279297 3.61857422 40.89308594 3.67464844 39.90429688 3.73242188 C38.50727539 3.80493164 38.50727539 3.80493164 37.08203125 3.87890625 C36.22843018 3.9260376 35.3748291 3.97316895 34.49536133 4.02172852 C31.87646242 3.99892429 29.54596848 3.59213206 27 3 C26.67 3.66 26.34 4.32 26 5 C26 4.34 26 3.68 26 3 C24.68 3 23.36 3 22 3 C23.84188612 5.05270463 23.84188612 5.05270463 26 6 C26.7866377 7.9493686 27.48243057 9.93601522 28.125 11.9375 C28.47820312 13.01902344 28.83140625 14.10054688 29.1953125 15.21484375 C30 18 30 18 30 20 C29.16728073 20.01030746 28.33456146 20.02061493 27.47660828 20.03123474 C19.63376791 20.129162 11.79100373 20.2316697 3.94829082 20.33933926 C-0.08384284 20.39453281 -4.11598381 20.44794712 -8.14819336 20.49731445 C-12.03858448 20.54501062 -15.92888769 20.59735535 -19.81917381 20.65294075 C-21.30432131 20.6733405 -22.78949289 20.69205751 -24.274683 20.70907402 C-26.35288838 20.73317079 -28.43092808 20.76321796 -30.5090332 20.79467773 C-31.69261917 20.81022202 -32.87620514 20.8257663 -34.09565735 20.84178162 C-37.06636816 20.87536986 -37.06636816 20.87536986 -40 22 C-41 18 -41 18 -36 5 C-17.19 5 1.62 5 21 5 C21 4.34 21 3.68 21 3 C20.34 3.0721875 19.68 3.144375 19 3.21875 C7.35053901 4.31088697 -4.31121965 4.09289286 -16 4 C-15.67 3.34 -15.34 2.68 -15 2 C-10.05 2 -5.1 2 0 2 C0 1.34 0 0.68 0 0 Z " fill="#CFD7FF" transform="translate(256,301)"/>
<path d="M0 0 C10.56 0 21.12 0 32 0 C32 2.97 32 5.94 32 9 C25.07 9 18.14 9 11 9 C11 11.97 11 14.94 11 18 C15.62 18 20.24 18 25 18 C25.09765625 24.15234375 25.09765625 24.15234375 25 26 C24 27 24 27 21.05859375 27.09765625 C19.86363281 27.08605469 18.66867187 27.07445312 17.4375 27.0625 C15.64119141 27.04896484 15.64119141 27.04896484 13.80859375 27.03515625 C12.88175781 27.02355469 11.95492188 27.01195312 11 27 C11 29.97 11 32.94 11 36 C17.93 36 24.86 36 32 36 C32 38.97 32 41.94 32 45 C21.44 45 10.88 45 0 45 C0 30.15 0 15.3 0 0 Z " fill="#323232" transform="translate(290,369)"/>
<path d="M0 0 C7.26 0.66 14.52 1.32 22 2 C21.67 4.64 21.34 7.28 21 10 C20.33613281 10.01417969 19.67226562 10.02835938 18.98828125 10.04296875 C12.99880353 10.36090797 12.99880353 10.36090797 7.9375 13.4375 C5.07156923 17.22792457 4.62652995 19.23825683 5 24 C5.7918416 26.82108941 5.7918416 26.82108941 8 29 C10.92849903 30.29809354 13.90144781 31.20100227 17 32 C8.13493724 62.91004184 8.13493724 62.91004184 -4 71 C-4 64.07 -4 57.14 -4 50 C-4.66 50 -5.32 50 -6 50 C-6.29644015 39.6794912 -6.23345141 29.60311621 -4.6875 19.375 C-4.56979248 18.58383789 -4.45208496 17.79267578 -4.33081055 16.97753906 C-3.35957133 11.0494379 -1.7569182 5.856394 0 0 Z " fill="#F1F0F8" transform="translate(233,34)"/>
<path d="M0 0 C3.63 0 7.26 0 11 0 C13.31 4.29 15.62 8.58 18 13 C18.763125 11.783125 19.52625 10.56625 20.3125 9.3125 C20.78042969 8.58675781 21.24835938 7.86101562 21.73046875 7.11328125 C23.13071934 4.92696885 23.13071934 4.92696885 24.125 2 C26 0 26 0 28.62890625 -0.30078125 C31.43764422 -0.3115427 34.20005496 -0.2139177 37 0 C36.01603589 3.64347852 34.75073623 6.53460096 32.58984375 9.59375 C28.53574293 15.42228649 28.53574293 15.42228649 26 22 C27.1794778 27.56913809 29.7334755 31.40421462 33 36 C33.83026901 37.40632644 34.64763903 38.82058742 35.4375 40.25 C35.953125 41.1575 36.46875 42.065 37 43 C37 43.66 37 44.32 37 45 C33.11246004 45.75923023 29.84851466 46.04865567 26 45 C22.88161379 41.35197454 20.98234798 37.34495768 19 33 C18.505 32.505 18.505 32.505 18 32 C14.535 38.435 14.535 38.435 11 45 C7.37 45 3.74 45 0 45 C0.81265361 41.74938554 1.41441019 40.02893736 3.06640625 37.28515625 C3.46923828 36.59873047 3.87207031 35.91230469 4.28710938 35.20507812 C5.13667931 33.77785267 5.99084745 32.35335422 6.84960938 30.93164062 C10.00802043 25.79886717 10.00802043 25.79886717 10 20 C8.51616229 17.00614591 6.7828225 14.19860536 5 11.375 C4.05664085 9.86562536 3.11886973 8.35273963 2.1875 6.8359375 C1.55908203 5.83892822 1.55908203 5.83892822 0.91796875 4.82177734 C0 3 0 3 0 0 Z " fill="#333333" transform="translate(231,369)"/>
<path d="M0 0 C10.56 0 21.12 0 32 0 C32 2.97 32 5.94 32 9 C25.07 9 18.14 9 11 9 C11 11.97 11 14.94 11 18 C15.62 18 20.24 18 25 18 C25.09765625 24.15234375 25.09765625 24.15234375 25 26 C24 27 24 27 21.05859375 27.09765625 C17.70572917 27.06510417 14.35286458 27.03255208 11 27 C11 32.94 11 38.88 11 45 C7.37 45 3.74 45 0 45 C0 30.15 0 15.3 0 0 Z " fill="#343434" transform="translate(179,369)"/>
<path d="M0 0 C1.22396484 -0.04930664 1.22396484 -0.04930664 2.47265625 -0.09960938 C8.50778417 -0.15375816 8.50778417 -0.15375816 11.6328125 2.83984375 C14.35984025 7.58715645 14.84049966 10.97973515 14.125 16.4375 C11.56998583 24.07866388 6.66855048 29.74263673 1.125 35.4375 C-5.98125359 32.25878872 -9.75045609 25.70104362 -12.9609375 18.85546875 C-14.77474644 14.0574015 -14.35497135 10.27199009 -12.5 5.625 C-9.32981238 -0.59344495 -6.37722731 0.04491005 0 0 Z " fill="#F0992D" transform="translate(247.875,124.5625)"/>
<path d="M0 0 C1.12060865 1.15456648 2.23679202 2.31381636 3.328125 3.49609375 C6.20342947 6.08252418 9.61767713 7.80306516 12.98828125 9.66796875 C13.65214844 10.10753906 14.31601562 10.54710937 15 11 C15 11.66 15 12.32 15 13 C15.680625 13.0825 16.36125 13.165 17.0625 13.25 C20.8746907 14.22332528 23.64070329 15.95807455 27 18 C27 19.32 27 20.64 27 22 C23.56395235 23.71802382 19.61561104 23.1196618 15.8359375 23.09765625 C14.92872955 23.0962413 14.02152161 23.09482635 13.08682251 23.09336853 C10.18284845 23.08776096 7.27895085 23.07520718 4.375 23.0625 C2.40885528 23.05748598 0.44270935 23.0529229 -1.5234375 23.04882812 C-6.3489879 23.03778906 -11.17448097 23.02051935 -16 23 C-15.67 21.02 -15.34 19.04 -15 17 C-15.66 17 -16.32 17 -17 17 C-17.33 17.66 -17.66 18.32 -18 19 C-18.33 18.34 -18.66 17.68 -19 17 C-19.66 17 -20.32 17 -21 17 C-20.67 16.01 -20.34 15.02 -20 14 C-19.34 14 -18.68 14 -18 14 C-18.33 13.01 -18.66 12.02 -19 11 C-18.67 10.34 -18.34 9.68 -18 9 C-24.435 9.495 -24.435 9.495 -31 10 C-31.33 11.65 -31.66 13.3 -32 15 C-33.32 13.68 -34.64 12.36 -36 11 C-32.43977376 7.54960079 -29.01330406 7.61162591 -24.3125 7.5625 C-15.24394225 7.24081822 -7.65730672 0 0 0 Z " fill="#364F9F" transform="translate(258,235)"/>
<path d="M0 0 C29.37 0 58.74 0 89 0 C89 0.33 89 0.66 89 1 C83.06 1 77.12 1 71 1 C70.67 1.66 70.34 2.32 70 3 C70 2.34 70 1.68 70 1 C65.38 1 60.76 1 56 1 C55.67 1.66 55.34 2.32 55 3 C55 2.34 55 1.68 55 1 C54.23864746 1.16749756 53.47729492 1.33499512 52.69287109 1.50756836 C47.73534147 2.16863786 42.90583473 2.01134626 37.9140625 1.87890625 C36.32868179 1.84348976 36.32868179 1.84348976 34.71127319 1.80735779 C31.34903476 1.73103441 27.98704505 1.64687565 24.625 1.5625 C22.33985576 1.50924795 20.05469952 1.45650778 17.76953125 1.40429688 C12.17953498 1.27546184 6.58972216 1.14020018 1 1 C1.03552979 2.25546631 1.07105957 3.51093262 1.10766602 4.80444336 C1.23876394 9.49520499 1.36166206 14.18615282 1.48217773 18.87719727 C1.53530455 20.90134507 1.5906078 22.92543703 1.64819336 24.94946289 C1.73092968 27.87113406 1.80564531 30.79292143 1.87890625 33.71484375 C1.90594131 34.60896469 1.93297638 35.50308563 1.96083069 36.42430115 C2.09233377 42.05323259 1.73479791 47.41603073 1 53 C1.99 53.33 2.98 53.66 4 54 C3.01 54 2.02 54 1 54 C1.01474869 54.73027405 1.02949738 55.4605481 1.04469299 56.21295166 C1.18280685 63.09876559 1.31576985 69.98466184 1.4429636 76.87068558 C1.50853466 80.4107605 1.57608916 83.9507743 1.64819336 87.49072266 C1.73102106 91.56142571 1.80519126 95.63224666 1.87890625 99.703125 C1.90594131 100.97303284 1.93297638 102.24294067 1.96083069 103.55133057 C1.98092697 104.73225281 2.00102325 105.91317505 2.02172852 107.12988281 C2.04171402 108.16912903 2.06169952 109.20837524 2.08229065 110.27911377 C2.00888983 112.70606351 1.70575859 114.68854829 1 117 C1.55349121 116.96970703 2.10698242 116.93941406 2.67724609 116.90820312 C5.24302269 116.76936818 7.80900152 116.63466942 10.375 116.5 C11.68017578 116.42845703 11.68017578 116.42845703 13.01171875 116.35546875 C19.01362761 116.04425866 24.99044443 115.94176474 31 116 C31.495 114.515 31.495 114.515 32 113 C33.65 113 35.3 113 37 113 C37.33 112.34 37.66 111.68 38 111 C40 112.375 40 112.375 42 114 C42 114.66 42 115.32 42 116 C41.15695313 116.19335938 40.31390625 116.38671875 39.4453125 116.5859375 C37.80175781 116.97652344 37.80175781 116.97652344 36.125 117.375 C35.03445312 117.63023437 33.94390625 117.88546875 32.8203125 118.1484375 C29.89591545 118.78906215 29.89591545 118.78906215 28 121 C20.6611634 122.19679489 13.35648111 122.11771602 5.9375 122.0625 C1.998125 122.041875 -1.94125 122.02125 -6 122 C-6 111.77 -6 101.54 -6 91 C-3.03 90.505 -3.03 90.505 0 90 C-0.16226074 88.89325928 -0.32452148 87.78651855 -0.49169922 86.64624023 C-1.11322574 81.64435654 -1.14380646 76.69486939 -1.1328125 71.66015625 C-1.13376923 70.66213486 -1.13472595 69.66411346 -1.13571167 68.635849 C-1.13639058 66.51528867 -1.13455651 64.39472623 -1.13037109 62.27416992 C-1.12516078 59.15863832 -1.13025036 56.04326064 -1.13671875 52.92773438 C-1.12570232 35.25186505 -0.53609338 17.69108157 0 0 Z " fill="#5F7BF7" transform="translate(145,141)"/>
<path d="M0 0 C7.62658553 3.73284355 10.9988823 8.67830661 15 16 C15.38800781 16.70125 15.77601563 17.4025 16.17578125 18.125 C17 20 17 20 17 23 C11.3564732 24.60154139 6.35360063 25.31397378 0.5 25.25 C-0.20769531 25.25773437 -0.91539062 25.26546875 -1.64453125 25.2734375 C-6.72043696 25.25487843 -11.11770376 24.3855165 -16 23 C-13.33132673 12.88713287 -8.17170249 6.38263153 0 0 Z " fill="#F04D7E" transform="translate(249,11)"/>
<path d="M0 0 C0.33 0 0.66 0 1 0 C1.80082745 6.62744303 2.09787598 13.0579575 1.87890625 19.7265625 C1.85529526 20.60025482 1.83168427 21.47394714 1.80735779 22.37411499 C1.73168009 25.12461635 1.64725264 27.87476489 1.5625 30.625 C1.5091829 32.50649399 1.45644345 34.38800445 1.40429688 36.26953125 C1.27619741 40.84657133 1.14025832 45.42331704 1 50 C2.18964355 49.89403 2.18964355 49.89403 3.40332031 49.78591919 C13.5346213 48.96466487 23.59160252 48.85415008 33.75 48.8671875 C35.58144144 48.86616856 37.41288273 48.86482722 39.24432373 48.8631897 C44.14787487 48.86049987 49.05139411 48.86494455 53.9549408 48.87142944 C57.00792536 48.87500929 60.0609052 48.87662125 63.1138916 48.87768555 C103.74756463 48.89523841 144.37210351 49.34144968 185 50 C185 49.34 185 48.68 185 48 C185.66 48 186.32 48 187 48 C187 48.66 187 49.32 187 50 C187.57363281 49.98839844 188.14726562 49.97679687 188.73828125 49.96484375 C195.0895696 49.89737938 201.40873483 50.11408504 207.75 50.4375 C208.95523315 50.49635376 208.95523315 50.49635376 210.18481445 50.55639648 C214.84421308 50.8073057 219.39145752 51.26682279 224 52 C223.67 51.01 223.34 50.02 223 49 C223.08461492 47.26675881 223.23604355 45.53607188 223.4375 43.8125 C223.53933594 42.91144531 223.64117187 42.01039063 223.74609375 41.08203125 C223.82988281 40.39496094 223.91367187 39.70789063 224 39 C224.33 39 224.66 39 225 39 C225 43.62 225 48.24 225 53 C221.43884466 53.71223107 218.79721927 54.12776298 215.27734375 54.1328125 C214.40916016 54.13410156 213.54097656 54.13539063 212.64648438 54.13671875 C211.30553711 54.13091797 211.30553711 54.13091797 209.9375 54.125 C208.59075195 54.13080078 208.59075195 54.13080078 207.21679688 54.13671875 C206.34990234 54.13542969 205.48300781 54.13414062 204.58984375 54.1328125 C203.80472412 54.13168457 203.01960449 54.13055664 202.21069336 54.12939453 C200.0207606 54.00121514 198.10406629 53.60390331 196 53 C195.67 53.66 195.34 54.32 195 55 C194.67 54.67 194.34 54.34 194 54 C190.97931243 53.92353658 187.98120986 53.90938889 184.9609375 53.9375 C184.04672028 53.94128662 183.13250305 53.94507324 182.19058228 53.94897461 C178.26615997 53.96535335 174.34184032 53.99329581 170.41748047 54.02050781 C167.55697111 54.03867585 164.69647922 54.05072577 161.8359375 54.0625 C160.95650482 54.07079834 160.07707214 54.07909668 159.17098999 54.08764648 C155.58098566 54.1018125 152.20864599 54.03114936 148.65087891 53.5 C143.34754815 52.77369123 138.09571382 52.89800154 132.75 52.9375 C131.57791992 52.94128662 130.40583984 52.94507324 129.19824219 52.94897461 C125.46545676 52.96115214 121.73274998 52.97977612 118 53 C113.08333526 53.02663828 108.16670995 53.04661566 103.25 53.0625 C102.1269043 53.07079834 101.00380859 53.07909668 99.84667969 53.08764648 C98.25968262 53.09260132 98.25968262 53.09260132 96.640625 53.09765625 C95.71797852 53.10289307 94.79533203 53.10812988 93.84472656 53.11352539 C91 53 91 53 87.67332458 52.50672913 C83.630155 51.94898049 79.65858599 51.82588986 75.58618164 51.79467773 C74.7756131 51.78477814 73.96504456 51.77487854 73.12991333 51.76467896 C70.47335648 51.73330583 67.8167818 51.70840307 65.16015625 51.68359375 C63.3092759 51.66300329 61.45840002 51.64200629 59.60752869 51.62062073 C54.7529566 51.56561605 49.8983436 51.51611213 45.04370117 51.46777344 C40.08313385 51.41739998 35.12262541 51.36179688 30.16210938 51.30664062 C20.44145664 51.19932357 10.72075262 51.09782064 1 51 C1 52.32 1 53.64 1 55 C0.34 54.67 -0.32 54.34 -1 54 C-0.67 36.18 -0.34 18.36 0 0 Z M197 48 C197.66 48 198.32 48 199 48 C198.67 48.66 198.34 49.32 198 50 C197.67 49.34 197.34 48.68 197 48 Z " fill="#94A7FF" transform="translate(138,213)"/>
<path d="M0 0 C0.79019531 0.165 1.58039063 0.33 2.39453125 0.5 C6.85940827 1.11918121 11.18846118 1.06884528 15.6875 1 C17.37884188 0.97447031 19.07025935 0.95344463 20.76171875 0.9375 C21.50381592 0.92589844 22.24591309 0.91429687 23.01049805 0.90234375 C25 1 25 1 28 2 C28.33 1.34 28.66 0.68 29 0 C29.99 0.495 29.99 0.495 31 1 C33.20784668 1.04635899 35.41699062 1.03782457 37.625 1 C42.87426071 0.95679621 47.82214038 1.17154246 53 2 C53 2.33 53 2.66 53 3 C49.6046836 3.19777236 46.20874308 3.38139685 42.8125 3.5625 C41.85279297 3.61857422 40.89308594 3.67464844 39.90429688 3.73242188 C38.50727539 3.80493164 38.50727539 3.80493164 37.08203125 3.87890625 C36.22843018 3.9260376 35.3748291 3.97316895 34.49536133 4.02172852 C31.87646242 3.99892429 29.54596848 3.59213206 27 3 C26.67 3.66 26.34 4.32 26 5 C26 4.34 26 3.68 26 3 C24.68 3 23.36 3 22 3 C23.84188612 5.05270463 23.84188612 5.05270463 26 6 C26.7866377 7.9493686 27.48243057 9.93601522 28.125 11.9375 C28.47820312 13.01902344 28.83140625 14.10054688 29.1953125 15.21484375 C30 18 30 18 30 20 C29.16728073 20.01030746 28.33456146 20.02061493 27.47660828 20.03123474 C19.63376791 20.129162 11.79100373 20.2316697 3.94829082 20.33933926 C-0.08384284 20.39453281 -4.11598381 20.44794712 -8.14819336 20.49731445 C-12.03858448 20.54501062 -15.92888769 20.59735535 -19.81917381 20.65294075 C-21.30432131 20.6733405 -22.78949289 20.69205751 -24.274683 20.70907402 C-26.35288838 20.73317079 -28.43092808 20.76321796 -30.5090332 20.79467773 C-31.69261917 20.81022202 -32.87620514 20.8257663 -34.09565735 20.84178162 C-37.06636816 20.87536986 -37.06636816 20.87536986 -40 22 C-40.33 21.01 -40.66 20.02 -41 19 C-28.13 19 -15.26 19 -2 19 C-0.8509288 17.0745356 -0.8509288 17.0745356 -1 15 C-2.98 14.34 -4.96 13.68 -7 13 C-7 12.34 -7 11.68 -7 11 C-3.62902617 9.50178941 -1.79557881 9 2 9 C2.33 8.34 2.66 7.68 3 7 C3 7.99 3 8.98 3 10 C3.763125 10 4.52625 10 5.3125 10 C9.24763407 10 11.53959207 10.09080942 15 12 C15 11.01 15 10.02 15 9 C15.66 8.67 16.32 8.34 17 8 C17 7.34 17 6.68 17 6 C9.08 6 1.16 6 -7 6 C-7 5.67 -7 5.34 -7 5 C2.24 5 11.48 5 21 5 C21 4.34 21 3.68 21 3 C20.34 3.0721875 19.68 3.144375 19 3.21875 C7.35053901 4.31088697 -4.31121965 4.09289286 -16 4 C-15.67 3.34 -15.34 2.68 -15 2 C-10.05 2 -5.1 2 0 2 C0 1.34 0 0.68 0 0 Z M18 6 C18.33 6.66 18.66 7.32 19 8 C19.33 7.34 19.66 6.68 20 6 C19.34 6 18.68 6 18 6 Z " fill="#A4B4FF" transform="translate(256,301)"/>
<path d="M0 0 C0.14567407 3.56206722 0.23419196 7.12336551 0.3125 10.6875 C0.35439453 11.69490234 0.39628906 12.70230469 0.43945312 13.74023438 C0.56410934 21.29440094 0.56410934 21.29440094 -2.3828125 24.98046875 C-3.24648437 25.64691406 -4.11015625 26.31335938 -5 27 C-9.00314648 32.73260251 -10.04916536 39.19402571 -11 46 C-12.65 45.67 -14.3 45.34 -16 45 C-19.17284592 32.9601829 -19.8616534 20.28416014 -14 9 C-10.77974842 3.75497485 -6.36552022 0 0 0 Z " fill="#EF4E7F" transform="translate(229,84)"/>
<path d="M0 0 C3.3 0 6.6 0 10 0 C11 1 11 1 11.12025452 2.79066467 C11.1169236 3.95981667 11.1169236 3.95981667 11.11352539 5.15258789 C11.11344986 6.03342545 11.11337433 6.914263 11.11329651 7.8217926 C11.10813522 8.77907761 11.10297394 9.73636261 11.09765625 10.72265625 C11.0962413 11.69786728 11.09482635 12.67307831 11.09336853 13.67784119 C11.08775133 16.80609143 11.07519593 19.93427123 11.0625 23.0625 C11.05748722 25.17773334 11.05292393 27.29296781 11.04882812 29.40820312 C11.03777631 34.60549607 11.02050016 39.80273608 11 45 C7.37 45 3.74 45 0 45 C0 30.15 0 15.3 0 0 Z " fill="#363636" transform="translate(273,369)"/>
<path d="M0 0 C3.3 0 6.6 0 10 0 C11 1 11 1 11.12025452 2.79066467 C11.1169236 3.95981667 11.1169236 3.95981667 11.11352539 5.15258789 C11.11344986 6.03342545 11.11337433 6.914263 11.11329651 7.8217926 C11.10813522 8.77907761 11.10297394 9.73636261 11.09765625 10.72265625 C11.0962413 11.69786728 11.09482635 12.67307831 11.09336853 13.67784119 C11.08775133 16.80609143 11.07519593 19.93427123 11.0625 23.0625 C11.05748722 25.17773334 11.05292393 27.29296781 11.04882812 29.40820312 C11.03777631 34.60549607 11.02050016 39.80273608 11 45 C7.37 45 3.74 45 0 45 C0 30.15 0 15.3 0 0 Z " fill="#383838" transform="translate(215,369)"/>
<path d="M0 0 C6.6091173 1.96688822 10.86777334 5.01488267 14.875 10.625 C17.44676474 16.05428111 17.18341914 21.34907683 17.1875 27.25 C17.19974609 28.16652344 17.21199219 29.08304688 17.22460938 30.02734375 C17.23675949 35.70549676 16.61728004 40.55366564 15 46 C13.68 46 12.36 46 11 46 C10.84144531 45.154375 10.68289063 44.30875 10.51953125 43.4375 C8.25057224 32.4029416 8.25057224 32.4029416 1.43823242 23.7199707 C-0.5205968 21.37742243 -0.34538838 19.91739649 -0.29296875 16.89453125 C-0.28330078 15.91162109 -0.27363281 14.92871094 -0.26367188 13.91601562 C-0.23853516 12.89185547 -0.21339844 11.86769531 -0.1875 10.8125 C-0.17396484 9.77673828 -0.16042969 8.74097656 -0.14648438 7.67382812 C-0.11111389 5.11536301 -0.06175544 2.5579422 0 0 Z " fill="#EE4C7E" transform="translate(269,82)"/>
<path d="M0 0 C14.52 0 29.04 0 44 0 C44 2.97 44 5.94 44 9 C29.48 9 14.96 9 0 9 C0 6.03 0 3.06 0 0 Z " fill="#F1487A" transform="translate(227,111)"/>
<path d="M0 0 C3.13109512 1.32201794 4.67315518 2.61868104 6.875 5.1875 C8.39286334 8.98215835 8.28755103 12.18360622 7 16 C4.80742191 18.64233769 3.06660382 20.46669809 0 22 C-4.8955438 22.1346515 -8.14712481 21.69296109 -12 18.5625 C-14.93934438 14.79646501 -15.46057454 12.78997521 -15 8 C-11.23420792 1.24754523 -7.72535407 -0.96755902 0 0 Z " fill="#8DBCD5" transform="translate(252,44)"/>
<path d="M0 0 C0.66 0.33 1.32 0.66 2 1 C1.01 2.485 1.01 2.485 0 4 C-1.13083719 10.92637782 2.09953317 15.57161307 6 21 C6.97168803 22.02753217 7.96178776 23.03973163 9 24 C14.17119509 21.8574875 16.54573906 17.87822235 19 13 C20.19326716 8.43065991 20.31575376 4.53884047 19 0 C22.43511962 3.32430931 24.15141497 5.18432233 24.375 10 C24.21491642 19.98921521 17.63894991 27.17983806 11 34 C3.89374641 30.82128872 0.12454391 24.26354362 -3.0859375 17.41796875 C-4.91737508 12.57326849 -4.46762928 8.79777977 -2.5625 4.125 C-1 1 -1 1 0 0 Z " fill="#F9CA45" transform="translate(238,126)"/>
<path d="M0 0 C4.25920619 2.43180053 7.22538096 4.95518199 10 9 C10.39703125 9.56847656 10.7940625 10.13695313 11.203125 10.72265625 C15.66738757 18.62943116 14.32104003 28.23382362 14 37 C13.01 37 12.02 37 11 37 C10.84144531 36.154375 10.68289063 35.30875 10.51953125 34.4375 C8.26448842 23.34928257 8.26448842 23.34928257 1.35546875 14.70703125 C-0.75964064 12.04333441 -0.28627242 9.63783825 -0.1875 6.3125 C-0.16042969 5.13300781 -0.13335937 3.95351562 -0.10546875 2.73828125 C-0.07066406 1.83464844 -0.03585937 0.93101563 0 0 Z " fill="#C8417B" transform="translate(269,91)"/>
<path d="M0 0 C3 1 3 1 6 3 C6.99 3 7.98 3 9 3 C8.67 4.65 8.34 6.3 8 8 C8.99 7.01 9.98 6.02 11 5 C11.33 5.66 11.66 6.32 12 7 C12.66 6.67 13.32 6.34 14 6 C14 5.34 14 4.68 14 4 C17.12225008 4.90380923 18.63727016 5.34708628 20.25 8.25 C21.04221066 11.15477241 21.58404075 14.0189587 22 17 C22.99 17.33 23.98 17.66 25 18 C21.7 18 18.4 18 15 18 C15.33 15.69 15.66 13.38 16 11 C14.76305495 12.08563646 14.76305495 12.08563646 14.1875 14.5 C13 17 13 17 11.3125 17.8125 C8.20056862 18.06481876 5.12021773 18.06000419 2 18 C1 15 1 15 2 12 C2.99 11.67 3.98 11.34 5 11 C4.67 11 4.34 11 4 11 C3.896875 10.071875 3.79375 9.14375 3.6875 8.1875 C2.97429072 4.88080243 2.44405178 4.12526242 0 2 C0 1.34 0 0.68 0 0 Z " fill="#334C9C" transform="translate(252,239)"/>
<path d="M0 0 C0.79178886 11.03225806 0.79178886 11.03225806 -2.25 14.75 C-3.1575 15.4925 -4.065 16.235 -5 17 C-8.96910938 22.78548147 -10.04484188 29.16307873 -11 36 C-12.32 36 -13.64 36 -15 36 C-15.64506916 23.43309712 -12.76923367 13.03282395 -4.53515625 3.26171875 C-1.3653169 0 -1.3653169 0 0 0 Z " fill="#C8437C" transform="translate(229,94)"/>
<path d="M0 0 C0.495 1.485 0.495 1.485 1 3 C1.763125 3 2.52625 3 3.3125 3 C7.70468564 3 10.83965834 3.52076741 15 5 C15.33 4.34 15.66 3.68 16 3 C17.32 3.33 18.64 3.66 20 4 C18.70256222 6.59487555 17.70637529 7.02269781 15 8 C13.3222433 7.72793135 11.65549531 7.38499891 10 7 C7.66698014 6.96175377 5.33288492 6.95425716 3 7 C2.34 8.65 1.68 10.3 1 12 C1.96039185 11.94670532 1.96039185 11.94670532 2.94018555 11.89233398 C5.85564635 11.73422072 8.77152272 11.58577003 11.6875 11.4375 C12.69490234 11.38142578 13.70230469 11.32535156 14.74023438 11.26757812 C16.20493164 11.19506836 16.20493164 11.19506836 17.69921875 11.12109375 C18.59471436 11.0739624 19.49020996 11.02683105 20.4128418 10.97827148 C23.06823177 11.00057305 25.41958599 11.39607332 28 12 C28 12.33 28 12.66 28 13 C27.16728073 13.01030746 26.33456146 13.02061493 25.47660828 13.03123474 C17.63376791 13.129162 9.79100373 13.2316697 1.94829082 13.33933926 C-2.08384284 13.39453281 -6.11598381 13.44794712 -10.14819336 13.49731445 C-14.03858448 13.54501062 -17.92888769 13.59735535 -21.81917381 13.65294075 C-23.30432131 13.6733405 -24.78949289 13.69205751 -26.274683 13.70907402 C-28.35288838 13.73317079 -30.43092808 13.76321796 -32.5090332 13.79467773 C-33.69261917 13.81022202 -34.87620514 13.8257663 -36.09565735 13.84178162 C-39.06636816 13.87536986 -39.06636816 13.87536986 -42 15 C-42.33 14.01 -42.66 13.02 -43 12 C-30.13 12 -17.26 12 -4 12 C-2.8509288 10.0745356 -2.8509288 10.0745356 -3 8 C-4.98 7.34 -6.96 6.68 -9 6 C-9 5.34 -9 4.68 -9 4 C-5.62902617 2.50178941 -3.79557881 2 0 2 C0 1.34 0 0.68 0 0 Z " fill="#C5CFFF" transform="translate(258,308)"/>
<path d="M0 0 C8.91 0 17.82 0 27 0 C27.33 1.98 27.66 3.96 28 6 C26.783125 5.566875 25.56625 5.13375 24.3125 4.6875 C22.14221988 4.04559787 22.14221988 4.04559787 20 4 C17.14515489 6.27110728 17.14515489 6.27110728 15 9 C14.01 9 13.02 9 12 9 C12 8.34 12 7.68 12 7 C7.99799622 5.39919849 4.95443764 6.70720308 1 8 C3.475 8.99 3.475 8.99 6 10 C5.67 10.66 5.34 11.32 5 12 C2.36 11.67 -0.28 11.34 -3 11 C-2.42732628 6.89583836 -1.5731146 3.9327865 0 0 Z " fill="#C4CEFF" transform="translate(220,306)"/>
<path d="M0 0 C14.52 0 29.04 0 44 0 C44 2.97 44 5.94 44 9 C29.48 9 14.96 9 0 9 C0 6.03 0 3.06 0 0 Z M1 3 C1 4.65 1 6.3 1 8 C14.86 8 28.72 8 43 8 C43 6.35 43 4.7 43 3 C29.14 3 15.28 3 1 3 Z " fill="#D05388" transform="translate(227,111)"/>
<path d="M0 0 C0.33 0.66 0.66 1.32 1 2 C2.051875 2.185625 2.051875 2.185625 3.125 2.375 C6.96718074 3.21025668 9.64465441 4.96047621 13 7 C13 8.32 13 9.64 13 11 C9.56395235 12.71802382 5.61561104 12.1196618 1.8359375 12.09765625 C0.92872955 12.0962413 0.02152161 12.09482635 -0.91317749 12.09336853 C-3.81715155 12.08776096 -6.72104915 12.07520718 -9.625 12.0625 C-11.59114472 12.05748598 -13.55729065 12.0529229 -15.5234375 12.04882812 C-20.3489879 12.03778906 -25.17448097 12.02051935 -30 12 C-29.67 10.35 -29.34 8.7 -29 7 C-27.35 7 -25.7 7 -24 7 C-23.67 8.32 -23.34 9.64 -23 11 C-21.948125 10.814375 -20.89625 10.62875 -19.8125 10.4375 C-16.42880118 10.04920669 -14.23574112 10.11752515 -11 11 C-10.67 10.34 -10.34 9.68 -10 9 C-10 9.66 -10 10.32 -10 11 C-6.39345961 8.59563974 -6.14547068 7.05320393 -5 3 C-4.34 3.33 -3.68 3.66 -3 4 C-3.33 5.98 -3.66 7.96 -4 10 C-2.02 10 -0.04 10 2 10 C1.67 9.0925 1.34 8.185 1 7.25 C0 4 0 4 0 0 Z " fill="#455DB0" transform="translate(272,246)"/>
<path d="M0 0 C-0.14204741 1.58367747 -0.28880153 3.16693318 -0.4375 4.75 C-0.51871094 5.63171875 -0.59992188 6.5134375 -0.68359375 7.421875 C-0.96238465 9.69350452 -1.38790577 11.79851823 -2 14 C-8.40096618 14.48309179 -8.40096618 14.48309179 -10.9375 12.4375 C-12.42791738 9.01830718 -12.52704073 6.68928508 -12 3 C-8.2764518 -1.51339176 -5.47398896 -1.2879974 0 0 Z " fill="#83D6F4" transform="translate(253,48)"/>
<path d="M0 0 C0.33 0 0.66 0 1 0 C1 4.62 1 9.24 1 14 C-2.56115534 14.71223107 -5.20278073 15.12776298 -8.72265625 15.1328125 C-9.59083984 15.13410156 -10.45902344 15.13539063 -11.35351562 15.13671875 C-12.69446289 15.13091797 -12.69446289 15.13091797 -14.0625 15.125 C-15.40924805 15.13080078 -15.40924805 15.13080078 -16.78320312 15.13671875 C-17.65009766 15.13542969 -18.51699219 15.13414062 -19.41015625 15.1328125 C-20.19527588 15.13168457 -20.98039551 15.13055664 -21.78930664 15.12939453 C-23.9792394 15.00121514 -25.89593371 14.60390331 -28 14 C-28.33 14.66 -28.66 15.32 -29 16 C-29.33 15.67 -29.66 15.34 -30 15 C-31.41570123 14.91348389 -32.835595 14.89295096 -34.25390625 14.90234375 C-35.53491211 14.90717773 -35.53491211 14.90717773 -36.84179688 14.91210938 C-38.18854492 14.92467773 -38.18854492 14.92467773 -39.5625 14.9375 C-40.46419922 14.94201172 -41.36589844 14.94652344 -42.29492188 14.95117188 C-44.53001314 14.96299775 -46.76497437 14.9794778 -49 15 C-49 14.01 -49 13.02 -49 12 C-43.14673162 11.97519316 -37.29349418 11.95708945 -31.44018555 11.94506836 C-29.45092231 11.94005436 -27.46166273 11.93324151 -25.47241211 11.92456055 C-22.60529678 11.91236616 -19.73823038 11.90674223 -16.87109375 11.90234375 C-15.54723915 11.89460182 -15.54723915 11.89460182 -14.19664001 11.88670349 C-9.35354428 11.88626819 -4.77531522 12.18194066 0 13 C-0.495 11.515 -0.495 11.515 -1 10 C-0.91538508 8.26675881 -0.76395645 6.53607188 -0.5625 4.8125 C-0.46066406 3.91144531 -0.35882813 3.01039063 -0.25390625 2.08203125 C-0.17011719 1.39496094 -0.08632813 0.70789063 0 0 Z " fill="#92A5FF" transform="translate(362,252)"/>
<path d="M0 0 C7.26 0 14.52 0 22 0 C22 1.65 22 3.3 22 5 C14.74 5 7.48 5 0 5 C0 3.35 0 1.7 0 0 Z " fill="#88B9D2" transform="translate(237,120)"/>
<path d="M0 0 C4.23930191 3.76826837 6.99834049 7.65478634 9 13 C9 13.99 9 14.98 9 16 C4.05 16.495 4.05 16.495 -1 17 C-1.02721176 15.10424749 -1.04649136 13.20838021 -1.0625 11.3125 C-1.07410156 10.25675781 -1.08570313 9.20101563 -1.09765625 8.11328125 C-1.00865425 5.27589738 -0.64939838 2.7561081 0 0 Z " fill="#CA437C" transform="translate(257,18)"/>
<path d="M0 0 C0.66 0 1.32 0 2 0 C1.67 0.66 1.34 1.32 1 2 C0.67 1.34 0.34 0.68 0 0 Z M-12 0 C-11.34 0 -10.68 0 -10 0 C-10 0.66 -10 1.32 -10 2 C-6.37 2 -2.74 2 1 2 C1 2.33 1 2.66 1 3 C-6.59 3 -14.18 3 -22 3 C-22 3.66 -22 4.32 -22 5 C-26.6575763 6.18079399 -31.16808235 6.14836041 -35.9375 6.125 C-36.72318359 6.12886719 -37.50886719 6.13273437 -38.31835938 6.13671875 C-42.65757175 6.12945647 -46.72757542 5.86408587 -51 5 C-51 4.67 -51 4.34 -51 4 C-47.7 3.67 -44.4 3.34 -41 3 C-41 2.67 -41 2.34 -41 2 C-31.43 2 -21.86 2 -12 2 C-12 1.34 -12 0.68 -12 0 Z " fill="#7F96FF" transform="translate(335,261)"/>
<path d="M0 0 C5.28 0 10.56 0 16 0 C16 0.33 16 0.66 16 1 C14.02 1.33 12.04 1.66 10 2 C9.67 3.32 9.34 4.64 9 6 C6.36 6.66 3.72 7.32 1 8 C3.475 8.99 3.475 8.99 6 10 C5.67 10.66 5.34 11.32 5 12 C2.36 11.67 -0.28 11.34 -3 11 C-2.42732628 6.89583836 -1.5731146 3.9327865 0 0 Z " fill="#C5CFFF" transform="translate(220,306)"/>
<path d="M0 0 C0.92304932 -0.00193359 1.84609863 -0.00386719 2.79711914 -0.00585938 C4.30520142 0.0009082 4.30520142 0.0009082 5.84375 0.0078125 C7.42820923 0.01071289 7.42820923 0.01071289 9.04467773 0.01367188 C25.14854703 0.09568918 41.24824497 0.64026673 57.34375 1.1328125 C57.34375 1.4628125 57.34375 1.7928125 57.34375 2.1328125 C51.73375 2.1328125 46.12375 2.1328125 40.34375 2.1328125 C40.01375 2.7928125 39.68375 3.4528125 39.34375 4.1328125 C39.34375 3.4728125 39.34375 2.8128125 39.34375 2.1328125 C34.88875 2.6278125 34.88875 2.6278125 30.34375 3.1328125 C30.83875 4.1228125 30.83875 4.1228125 31.34375 5.1328125 C30.84359375 4.81570313 30.3434375 4.49859375 29.828125 4.171875 C26.47133852 2.767936 23.18088706 2.67055596 19.59375 2.5078125 C18.89636719 2.46914063 18.19898438 2.43046875 17.48046875 2.390625 C15.76864182 2.29682626 14.05623318 2.21375076 12.34375 2.1328125 C12.01375 2.7928125 11.68375 3.4528125 11.34375 4.1328125 C10.68375 3.8028125 10.02375 3.4728125 9.34375 3.1328125 C7.8972258 2.98214036 6.4449566 2.88420214 4.9921875 2.81640625 C3.71601563 2.75356445 3.71601563 2.75356445 2.4140625 2.68945312 C1.52460938 2.65013672 0.63515625 2.61082031 -0.28125 2.5703125 C-1.1784375 2.52712891 -2.075625 2.48394531 -3 2.43945312 C-5.21859283 2.33324389 -7.4372988 2.23120056 -9.65625 2.1328125 C-9.65625 1.8028125 -9.65625 1.4728125 -9.65625 1.1328125 C-6.38259557 0.40412771 -3.35172807 0.00481175 0 0 Z " fill="#768EFF" transform="translate(318.65625,301.8671875)"/>
<path d="M0 0 C0.33 0.99 0.66 1.98 1 3 C1.99 3.33 2.98 3.66 4 4 C-2.6 4 -9.2 4 -16 4 C-15 0 -15 0 -14 -1 C-8.74922251 -2.15517105 -5.0140828 -2.00563312 0 0 Z " fill="#CCD4FF" transform="translate(275,316)"/>
<path d="M0 0 C1.0625 1.875 1.0625 1.875 2 4 C1.67 4.66 1.34 5.32 1 6 C-21.44 6 -43.88 6 -67 6 C-63.49357293 3.66238196 -62.1114405 3.7561402 -57.96801758 3.77294922 C-56.10642754 3.77317581 -56.10642754 3.77317581 -54.20722961 3.77340698 C-52.8529952 3.7836202 -51.49876242 3.79405219 -50.14453125 3.8046875 C-48.75876571 3.80841833 -47.37299752 3.81126497 -45.98722839 3.81326294 C-42.3424652 3.82089392 -38.69786176 3.8405377 -35.05316162 3.8626709 C-31.33298911 3.88314092 -27.61279074 3.89226712 -23.89257812 3.90234375 C-16.5949793 3.92378419 -9.29751205 3.95791356 -2 4 C-2 3.34 -2 2.68 -2 2 C-1.34 2 -0.68 2 0 2 C0 1.34 0 0.68 0 0 Z " fill="#8299FE" transform="translate(355,252)"/>
<path d="M0 0 C0 0.33 0 0.66 0 1 C-0.83271927 1.01030746 -1.66543854 1.02061493 -2.52339172 1.03123474 C-10.36623209 1.129162 -18.20899627 1.2316697 -26.05170918 1.33933926 C-30.08384284 1.39453281 -34.11598381 1.44794712 -38.14819336 1.49731445 C-42.03858448 1.54501062 -45.92888769 1.59735535 -49.81917381 1.65294075 C-51.30432131 1.6733405 -52.78949289 1.69205751 -54.274683 1.70907402 C-56.35288838 1.73317079 -58.43092808 1.76321796 -60.5090332 1.79467773 C-61.69261917 1.81022202 -62.87620514 1.8257663 -64.09565735 1.84178162 C-67.06636816 1.87536986 -67.06636816 1.87536986 -70 3 C-70.33 2.01 -70.66 1.02 -71 0 C-62.62878074 -0.1541377 -54.25748593 -0.30231575 -45.8860302 -0.4429636 C-41.9985058 -0.50846309 -38.11103887 -0.57598655 -34.22363281 -0.64819336 C-30.46952473 -0.71784878 -26.71535896 -0.78211198 -22.9610939 -0.84269524 C-21.53140051 -0.86670307 -20.10173794 -0.89262785 -18.67211533 -0.92053413 C-16.66415271 -0.95939663 -14.65604829 -0.99070733 -12.64794922 -1.02172852 C-10.9358577 -1.05170677 -10.9358577 -1.05170677 -9.18917847 -1.08229065 C-6.03309259 -1.00085389 -3.09636017 -0.59739726 0 0 Z " fill="#8FA3FF" transform="translate(286,320)"/>
<path d="M0 0 C0.33 0.66 0.66 1.32 1 2 C1.99 2.33 2.98 2.66 4 3 C4.59732819 5.76264289 5 8.16032769 5 11 C2.69 11 0.38 11 -2 11 C-2.66 9.68 -3.32 8.36 -4 7 C-3.34 6.34 -2.68 5.68 -2 5 C-2.66 4.34 -3.32 3.68 -4 3 C-3 1 -3 1 0 0 Z M-6 4 C-5.34 4 -4.68 4 -4 4 C-4.33 5.32 -4.66 6.64 -5 8 C-5.66 7.67 -6.32 7.34 -7 7 C-6.67 6.01 -6.34 5.02 -6 4 Z " fill="#4159A9" transform="translate(252,241)"/>
<path d="M0 0 C2.29104056 0.91641622 3.75057101 1.69118315 5.3125 3.625 C6.35372751 7.22196776 6.0923241 10.47095291 5 14 C2.73163798 16.88143284 1.15917383 18.59272271 -2.3125 19.8125 C-2.869375 19.874375 -3.42625 19.93625 -4 20 C-3.75 18.1875 -3.75 18.1875 -3 16 C-1.9790625 15.38125 -1.9790625 15.38125 -0.9375 14.75 C1.44585244 12.99943073 1.44585244 12.99943073 1.3125 9.125 C1.15739683 6.01144744 0.7576104 3.03044161 0 0 Z " fill="#749CC6" transform="translate(254,46)"/>
<path d="M0 0 C2 0 2 0 4.375 2.3125 C5.24125 3.199375 6.1075 4.08625 7 5 C7.763125 5.53625 8.52625 6.0725 9.3125 6.625 C9.869375 7.07875 10.42625 7.5325 11 8 C11 8.99 11 9.98 11 11 C9.0625 11.5625 9.0625 11.5625 7 12 C6.67 11.67 6.34 11.34 6 11 C5.34 11.66 4.68 12.32 4 13 C2.75453595 10.50907189 3.2232422 9.58919267 4 7 C3.01 7.33 2.02 7.66 1 8 C0.01 7.01 -0.98 6.02 -2 5 C-1 2 -1 2 0 0 Z " fill="#4058AA" transform="translate(256,235)"/>
<path d="M0 0 C0.33 0.66 0.66 1.32 1 2 C1.763125 2.144375 2.52625 2.28875 3.3125 2.4375 C6.26109198 3.05464716 7.73296884 4.06882531 10 6 C9 8 9 8 7 10 C4.375 10.125 4.375 10.125 2 10 C0.68373308 6.38026598 0 3.90432869 0 0 Z " fill="#3E56A6" transform="translate(272,246)"/>
<path d="M0 0 C0.99 0 1.98 0 3 0 C5.42603384 2.98055586 6.91332443 5.00323092 7.25 8.875 C7.1675 9.57625 7.085 10.2775 7 11 C3.08788267 9.84414715 0.1254959 8.64465038 -3 6 C-2.01 5.34 -1.02 4.68 0 4 C0 2.68 0 1.36 0 0 Z " fill="#3E56A4" transform="translate(194,170)"/>
<path d="M0 0 C0.99 0.33 1.98 0.66 3 1 C3 2.32 3 3.64 3 5 C0.703463 6.1482685 -0.58313167 6.11561175 -3.1328125 6.09765625 C-3.93847656 6.09443359 -4.74414062 6.09121094 -5.57421875 6.08789062 C-6.41597656 6.07951172 -7.25773437 6.07113281 -8.125 6.0625 C-8.97449219 6.05798828 -9.82398438 6.05347656 -10.69921875 6.04882812 C-12.79950909 6.03702874 -14.8997633 6.01909306 -17 6 C-15 4 -15 4 -12.1796875 3.8046875 C-11.08914063 3.82789063 -9.99859375 3.85109375 -8.875 3.875 C-7.77929688 3.89304688 -6.68359375 3.91109375 -5.5546875 3.9296875 C-4.71164062 3.95289063 -3.86859375 3.97609375 -3 4 C-2.67 3.01 -2.34 2.02 -2 1 C-1.34 0.67 -0.68 0.34 0 0 Z " fill="#4C64B7" transform="translate(282,252)"/>
<path d="M0 0 C0.33 0 0.66 0 1 0 C1 2.31 1 4.62 1 7 C1.66 7 2.32 7 3 7 C2.67 7.66 2.34 8.32 2 9 C1.84504237 11.24974161 1.74989072 13.50371536 1.68359375 15.7578125 C1.66281265 16.42086395 1.64203156 17.08391541 1.62062073 17.76705933 C1.55520769 19.88626694 1.49627895 22.005599 1.4375 24.125 C1.39430691 25.56121081 1.35069236 26.99740902 1.30664062 28.43359375 C1.19953501 31.95559594 1.09824425 35.47773825 1 39 C0.67 39 0.34 39 0 39 C0 32.4 0 25.8 0 19 C-0.66 18.67 -1.32 18.34 -2 18 C-1.34 18 -0.68 18 0 18 C0 12.06 0 6.12 0 0 Z " fill="#8097FF" transform="translate(355,175)"/>
<path d="M0 0 C0.99 0 1.98 0 3 0 C3.99 2.97 4.98 5.94 6 9 C-0.625 9.125 -0.625 9.125 -4 8 C-4.33 7.01 -4.66 6.02 -5 5 C-4.34 5 -3.68 5 -3 5 C-3 5.66 -3 6.32 -3 7 C-1.68 6.34 -0.36 5.68 1 5 C0.67 3.35 0.34 1.7 0 0 Z " fill="#B8C4FF" transform="translate(280,311)"/>
<path d="M0 0 C5.28 0 10.56 0 16 0 C16 0.33 16 0.66 16 1 C14.02 1.33 12.04 1.66 10 2 C9.67 3.32 9.34 4.64 9 6 C6.69 6 4.38 6 2 6 C2.33 5.34 2.66 4.68 3 4 C4.32 4 5.64 4 7 4 C6.67 3.34 6.34 2.68 6 2 C4.68 2 3.36 2 2 2 C1.34 1.34 0.68 0.68 0 0 Z " fill="#A5B5FF" transform="translate(220,306)"/>
<path d="M0 0 C0.99 0.66 1.98 1.32 3 2 C3.66920152 9.02661597 3.66920152 9.02661597 1.625 12 C0 13 0 13 -2 13 C-1.48041715 8.62065881 -0.94324258 4.31196609 0 0 Z " fill="#6EB2E3" transform="translate(253,49)"/>
<path d="M0 0 C1.22589844 0.01353516 1.22589844 0.01353516 2.4765625 0.02734375 C3.41628906 0.04474609 3.41628906 0.04474609 4.375 0.0625 C4.705 2.0425 5.035 4.0225 5.375 6.0625 C-3.19642857 4.20535714 -3.19642857 4.20535714 -6.625 1.0625 C-4.21954362 -0.14022819 -2.67503047 -0.03821472 0 0 Z " fill="#AEBDFF" transform="translate(242.625,305.9375)"/>
<path d="M0 0 C2.5 1.375 2.5 1.375 5 3 C5 3.66 5 4.32 5 5 C3.54364629 5.22174933 2.08477044 5.42698698 0.625 5.625 C-0.18710938 5.74101562 -0.99921875 5.85703125 -1.8359375 5.9765625 C-2.55007812 5.98429687 -3.26421875 5.99203125 -4 6 C-4.66 5.34 -5.32 4.68 -6 4 C-5.67 3.34 -5.34 2.68 -5 2 C-3.35 2 -1.7 2 0 2 C0 1.34 0 0.68 0 0 Z " fill="#586FC5" transform="translate(182,252)"/>
<path d="M0 0 C1.485 0.99 1.485 0.99 3 2 C3.99 2 4.98 2 6 2 C5.79375 2.61875 5.5875 3.2375 5.375 3.875 C5.25125 4.57625 5.1275 5.2775 5 6 C5.66 6.66 6.32 7.32 7 8 C4.69 8 2.38 8 0 8 C0 5.36 0 2.72 0 0 Z " fill="#465EB0" transform="translate(146,250)"/>
<path d="M0 0 C1.26328125 0.02707031 2.5265625 0.05414063 3.828125 0.08203125 C4.79234375 0.11683594 5.7565625 0.15164062 6.75 0.1875 C6.75 0.5175 6.75 0.8475 6.75 1.1875 C0.315 1.6825 0.315 1.6825 -6.25 2.1875 C-6.58 3.8375 -6.91 5.4875 -7.25 7.1875 C-8.57 5.8675 -9.89 4.5475 -11.25 3.1875 C-7.67487951 -0.25219926 -4.83224625 -0.13422906 0 0 Z " fill="#3D57B4" transform="translate(233.25,242.8125)"/>
<path d="M0 0 C2.89932357 2.39509338 3.50168276 4.31245243 4 8 C1.5625 7.625 1.5625 7.625 -1 7 C-1.33 6.34 -1.66 5.68 -2 5 C-1.34 5 -0.68 5 0 5 C-0.33 4.34 -0.66 3.68 -1 3 C-1.99 2.67 -2.98 2.34 -4 2 C-2.68 1.34 -1.36 0.68 0 0 Z " fill="#4E65B7" transform="translate(181,142)"/>
<path d="M0 0 C0.33 0.99 0.66 1.98 1 3 C1.66 3.33 2.32 3.66 3 4 C2.34 4.66 1.68 5.32 1 6 C-0.32 5.34 -1.64 4.68 -3 4 C-3.99 4.99 -4.98 5.98 -6 7 C-6.99 6.67 -7.98 6.34 -9 6 C-9 5.34 -9 4.68 -9 4 C-5.62902617 2.50178941 -3.79557881 2 0 2 C0 1.34 0 0.68 0 0 Z " fill="#AEBCFF" transform="translate(258,308)"/>
<path d="M0 0 C1.134375 0.020625 2.26875 0.04125 3.4375 0.0625 C3.4375 1.0525 3.4375 2.0425 3.4375 3.0625 C0.4675 3.7225 -2.5025 4.3825 -5.5625 5.0625 C-4.31580396 0.07571586 -4.31580396 0.07571586 0 0 Z " fill="#D5DCFF" transform="translate(264.5625,314.9375)"/>
<path d="M0 0 C1.0625 1.875 1.0625 1.875 2 4 C1.67 4.66 1.34 5.32 1 6 C0.01 5.34 -0.98 4.68 -2 4 C-2.33 4.66 -2.66 5.32 -3 6 C-3 3 -3 3 -1.5 1.3125 C-0.7575 0.6628125 -0.7575 0.6628125 0 0 Z M-4 6 C-4.33 6.66 -4.66 7.32 -5 8 C-7.31 7.67 -9.62 7.34 -12 7 C-8.93251126 5.13759612 -7.40254489 4.7848054 -4 6 Z " fill="#3953A8" transform="translate(192,230)"/>
<path d="M0 0 C1.47919922 0.06960937 1.47919922 0.06960937 2.98828125 0.140625 C3.98214844 0.17671875 4.97601563 0.2128125 6 0.25 C7.13888672 0.31960937 7.13888672 0.31960937 8.30078125 0.390625 C8.30078125 0.720625 8.30078125 1.050625 8.30078125 1.390625 C7.18703125 1.514375 6.07328125 1.638125 4.92578125 1.765625 C1.26974448 2.0372063 1.26974448 2.0372063 -0.69921875 4.390625 C-1.35921875 4.390625 -2.01921875 4.390625 -2.69921875 4.390625 C-3.35921875 5.050625 -4.01921875 5.710625 -4.69921875 6.390625 C-5.02921875 5.730625 -5.35921875 5.070625 -5.69921875 4.390625 C-4.03190196 1.4998505 -3.38689549 0.49014407 0 0 Z " fill="#3A53AA" transform="translate(208.69921875,247.609375)"/>
<path d="M0 0 C2.31 0.33 4.62 0.66 7 1 C6.67 2.32 6.34 3.64 6 5 C5.67 4.67 5.34 4.34 5 4 C4.01 4.33 3.02 4.66 2 5 C1.34 3.35 0.68 1.7 0 0 Z " fill="#5269BB" transform="translate(165,142)"/>
<path d="M0 0 C0.33 0.66 0.66 1.32 1 2 C3.28453433 3.14226716 5.62508799 4.06253473 8 5 C7.67 5.66 7.34 6.32 7 7 C4.36 6.67 1.72 6.34 -1 6 C-0.67 4.02 -0.34 2.04 0 0 Z " fill="#A2B3FF" transform="translate(218,311)"/>
<path d="M0 0 C1.65 0 3.3 0 5 0 C5 1.32 5 2.64 5 4 C3.35 4 1.7 4 0 4 C0 2.68 0 1.36 0 0 Z " fill="#3E57A7" transform="translate(243,253)"/>
<path d="M0 0 C0 0.66 0 1.32 0 2 C-0.99 2.495 -0.99 2.495 -2 3 C-1.34 3.66 -0.68 4.32 0 5 C-2.64 5 -5.28 5 -8 5 C-7.34 4.67 -6.68 4.34 -6 4 C-6 3.34 -6 2.68 -6 2 C-3 0 -3 0 0 0 Z " fill="#3D55A6" transform="translate(211,253)"/>
<path d="M0 0 C1.65 0.33 3.3 0.66 5 1 C3.73293765 3.53412471 2.59334288 3.97838008 0 5 C-0.66 4.67 -1.32 4.34 -2 4 C-2 3.34 -2 2.68 -2 2 C-1.34 2 -0.68 2 0 2 C0 1.34 0 0.68 0 0 Z " fill="#AAB9FF" transform="translate(273,311)"/>
<path d="M0 0 C2.31 0 4.62 0 7 0 C6 3 6 3 4 4 C3.01 4.66 2.02 5.32 1 6 C0.67 4.02 0.34 2.04 0 0 Z " fill="#3C55A4" transform="translate(176,238)"/>
<path d="M0 0 C4.875 1.75 4.875 1.75 6 4 C5.34 4 4.68 4 4 4 C3.67 4.66 3.34 5.32 3 6 C2.34 5.67 1.68 5.34 1 5 C0.375 2.4375 0.375 2.4375 0 0 Z " fill="#3A53A3" transform="translate(198,252)"/>
<path d="M0 0 C0 0.99 0 1.98 0 3 C-1.32 3.33 -2.64 3.66 -4 4 C-3.67 3.01 -3.34 2.02 -3 1 C-2.01 0.67 -1.02 0.34 0 0 Z M-6 4 C-5.34 4 -4.68 4 -4 4 C-4.33 5.32 -4.66 6.64 -5 8 C-5.66 7.67 -6.32 7.34 -7 7 C-6.67 6.01 -6.34 5.02 -6 4 Z " fill="#4C64B5" transform="translate(252,241)"/>
<path d="M0 0 C1.65 0.33 3.3 0.66 5 1 C4.67 2.32 4.34 3.64 4 5 C3.01 5 2.02 5 1 5 C1 4.34 1 3.68 1 3 C0.34 2.67 -0.32 2.34 -1 2 C-0.67 1.34 -0.34 0.68 0 0 Z " fill="#D0D8FF" transform="translate(276,313)"/>
<path d="M0 0 C-0.33 0.99 -0.66 1.98 -1 3 C-3.15634036 3 -4.92446352 2.5534764 -7 2 C-6 0 -6 0 -4.0625 -0.6875 C-2 -1 -2 -1 0 0 Z " fill="#B6C3FF" transform="translate(282,307)"/>
<path d="M0 0 C0.66 0 1.32 0 2 0 C1.45276317 3.37462715 0.9451 5.08235 -1 8 C-1 7.34 -1 6.68 -1 6 C-1.66 5.67 -2.32 5.34 -3 5 C-1.625 2.5 -1.625 2.5 0 0 Z " fill="#3C55A5" transform="translate(154,142)"/>
</svg>
